#N canvas 938 6 1494 949 10;
#X obj 469 127 gemwin;
#X msg 469 80 create;
#X msg 527 110 destroy;
#X msg 220 511 draw fill;
#X obj 298 492 pix_texture;
#X obj 298 192 pix_video;
#X msg 243 175 dialog;
#X obj 225 678 hsl 128 15 0 1 0 0 empty empty threshold -2 -8 0 10
-262144 -1 -1 3493 1;
#X obj 298 528 rectangle 5.33 4;
#X msg 527 79 dimen 640 480;
#X obj 499 315 s x;
#X obj 636 241 counter;
#X msg 655 183 0;
#X msg 665 202 0;
#X obj 636 355 counter;
#X msg 655 297 0;
#X msg 665 316 0;
#X obj 101 244 translateXYZ;
#X obj 124 216 r x;
#X floatatom 499 285 5 0 0 0 - - -;
#X floatatom 636 405 5 0 0 0 - - -;
#X obj 636 440 s y;
#X msg 675 221 15;
#X obj 147 216 r y;
#X obj 636 272 select 0;
#X msg 675 335 11;
#X obj 101 155 pix_separator;
#X obj 101 130 gemhead 55;
#X obj 221 199 loadbang;
#X msg 221 223 horizontal;
#X obj 298 240 pix_flip;
#X obj 507 443 pix_separator;
#X obj 492 544 pix_data;
#X obj 101 273 square 0.33;
#X floatatom 222 704 5 0 0 0 - - -;
#X obj 499 258 expr $f1 / 1.5 - 5;
#X obj 636 379 expr $f1 / 1.5 - 3.66;
#X obj 298 217 pix_rgba;
#X obj 298 349 alpha;
#X obj 24 366 pix_histo;
#X obj 23 399 table tab-h;
#X obj 98 399 table tab-s;
#X obj 23 421 table tab-v;
#X obj 222 728 s high;
#X obj 84 678 hsl 128 15 0 0.1 0 0 empty empty threshold -2 -8 0 10
-262144 -1 -1 12700 1;
#X floatatom 81 704 5 0 0 0 - - -;
#X obj 81 728 s low;
#X obj 247 307 r low;
#X obj 298 165 gemhead 49;
#X obj 298 302 pix_background;
#X msg 237 285 reset;
#X msg 379 275 \$1 \$1 \$1;
#X obj 178 332 pix_movement;
#X obj 815 280 loadbang;
#X obj 812 166 loadbang;
#X obj 24 316 loadbang;
#X obj 379 253 r high;
#X obj 98 421 table tab-a;
#X msg 24 340 set tab-h tab-s tab-v;
#X obj 298 426 trigger a a;
#X floatatom 550 339 5 0 0 0 - - -;
#X obj 550 366 s px;
#X floatatom 700 446 5 0 0 0 - - -;
#X obj 700 421 / 4;
#X obj 550 301 / 5.33;
#X obj 700 469 s py;
#X obj 527 180 s m_bang;
#X obj 430 527 r m_bang;
#X obj 522 499 r px;
#X obj 537 520 r py;
#X floatatom 514 609 5 0 0 0 - - -;
#X floatatom 548 609 5 0 0 0 - - -;
#X floatatom 583 609 5 0 0 0 - - -;
#X obj 514 578 unpack f f f f;
#X floatatom 618 609 5 0 0 0 - - -;
#X obj 618 629 > 0;
#X obj 901 39 r selected_color;
#X obj 518 737 s selected_color;
#X obj 101 62 s start;
#X obj 101 23 tgl 25 0 empty empty START 27 14 0 12 -4034 -1 -1 1 1
;
#X obj 636 123 r start;
#X obj 355 110 r start;
#X obj 298 391 pix_contrast;
#X floatatom 367 357 5 0 0 0 - - -;
#X msg 81 641 0.53;
#X msg 222 640 0.275;
#X obj 432 23 loadbang;
#X obj 432 46 trigger b b b;
#X obj 152 588 loadbang;
#X text 296 148 Display Video;
#X text 101 109 Display Square;
#X text 607 106 Sends Coordinates for Calculations;
#X text 102 310 unused at moment;
#X obj 901 69 unpack f f f;
#X obj 901 159 select 1;
#X obj 935 129 select 1;
#X obj 970 99 select 1;
#X floatatom 1030 204 5 0 0 0 - - -;
#X floatatom 1064 180 5 0 0 0 - - -;
#X floatatom 1099 146 5 0 0 0 - - -;
#X obj 101 197 color;
#X obj 419 602 s color;
#X obj 128 175 r color;
#X msg 24 256 draw fill;
#X obj 636 163 metro 1;
#X obj 942 574 MusicSelector;
#X floatatom 942 515 5 0 0 0 - - -;
#X floatatom 919 329 5 0 0 0 - - -;
#X floatatom 1064 329 5 0 0 0 - - -;
#X floatatom 1210 328 5 0 0 0 - - -;
#X obj 919 371 expr if ($f1 > $f2 \, $f1 \, $f2);
#X obj 957 426 expr if ($f1 > $f2 \, $f1 \, $f2);
#X obj 507 469 rgb2hsv;
#X obj 942 485 f;
#X obj 846 410 loadbang;
#X obj 846 448 tgl 15 0 empty empty empty 17 7 0 10 -262144 -1 -1 1
1;
#X obj 942 544 change;
#X floatatom 957 456 5 0 0 0 - - -;
#X obj 919 273 expr if($f1 > 50 && $f1 > \$2 && $f1 > $f3 \, 1 \, 1)
\; if($f2 > 50 && $f2 > $f1 && $f2 > $f3 \, 2 \, 1) \; if($f3 > 50
&& $f3 > $f1 && $f3 > $f2 \, 3 \, 1);
#X obj 846 468 metro 1000;
#X obj 961 176 DecayCounter;
#X obj 995 146 DecayCounter;
#X obj 1030 116 DecayCounter;
#X obj 518 681 binColor;
#X connect 1 0 0 0;
#X connect 2 0 0 0;
#X connect 3 0 8 0;
#X connect 4 0 8 0;
#X connect 5 0 37 0;
#X connect 6 0 5 0;
#X connect 7 0 34 0;
#X connect 9 0 0 0;
#X connect 11 0 24 0;
#X connect 11 0 35 0;
#X connect 12 0 11 2;
#X connect 13 0 11 3;
#X connect 14 0 36 0;
#X connect 15 0 14 2;
#X connect 16 0 14 3;
#X connect 17 0 33 0;
#X connect 18 0 17 1;
#X connect 19 0 10 0;
#X connect 19 0 64 0;
#X connect 20 0 21 0;
#X connect 20 0 63 0;
#X connect 22 0 11 4;
#X connect 23 0 17 2;
#X connect 24 0 14 0;
#X connect 25 0 14 4;
#X connect 26 0 100 0;
#X connect 27 0 26 0;
#X connect 28 0 29 0;
#X connect 29 0 30 0;
#X connect 30 0 49 0;
#X connect 31 0 112 0;
#X connect 32 1 73 0;
#X connect 32 1 101 0;
#X connect 34 0 43 0;
#X connect 35 0 19 0;
#X connect 36 0 20 0;
#X connect 37 0 30 0;
#X connect 38 0 82 0;
#X connect 44 0 45 0;
#X connect 45 0 46 0;
#X connect 47 0 52 1;
#X connect 48 0 5 0;
#X connect 49 0 38 0;
#X connect 50 0 49 0;
#X connect 51 0 49 1;
#X connect 52 0 38 0;
#X connect 53 0 15 0;
#X connect 53 0 16 0;
#X connect 53 0 25 0;
#X connect 54 0 12 0;
#X connect 54 0 13 0;
#X connect 54 0 22 0;
#X connect 55 0 58 0;
#X connect 56 0 51 0;
#X connect 58 0 39 0;
#X connect 59 0 4 0;
#X connect 59 1 31 0;
#X connect 60 0 61 0;
#X connect 62 0 65 0;
#X connect 63 0 62 0;
#X connect 64 0 60 0;
#X connect 67 0 32 0;
#X connect 68 0 32 2;
#X connect 69 0 32 3;
#X connect 70 0 123 1;
#X connect 71 0 123 2;
#X connect 72 0 123 3;
#X connect 73 0 70 0;
#X connect 73 1 71 0;
#X connect 73 2 72 0;
#X connect 73 3 74 0;
#X connect 74 0 75 0;
#X connect 75 0 123 0;
#X connect 76 0 93 0;
#X connect 79 0 78 0;
#X connect 80 0 104 0;
#X connect 81 0 0 0;
#X connect 82 0 59 0;
#X connect 83 0 82 2;
#X connect 84 0 44 0;
#X connect 85 0 7 0;
#X connect 86 0 87 0;
#X connect 87 1 1 0;
#X connect 87 2 9 0;
#X connect 88 0 84 0;
#X connect 88 0 85 0;
#X connect 93 0 94 0;
#X connect 93 1 95 0;
#X connect 93 2 96 0;
#X connect 94 0 120 0;
#X connect 95 0 121 0;
#X connect 96 0 122 0;
#X connect 97 0 118 0;
#X connect 98 0 118 1;
#X connect 99 0 118 2;
#X connect 100 0 17 0;
#X connect 102 0 100 1;
#X connect 103 0 33 0;
#X connect 104 0 11 0;
#X connect 104 0 66 0;
#X connect 106 0 116 0;
#X connect 107 0 110 0;
#X connect 108 0 110 1;
#X connect 109 0 111 1;
#X connect 110 0 111 0;
#X connect 111 0 117 0;
#X connect 112 0 32 1;
#X connect 113 0 106 0;
#X connect 114 0 115 0;
#X connect 115 0 119 0;
#X connect 116 0 105 0;
#X connect 117 0 113 1;
#X connect 118 0 107 0;
#X connect 118 1 108 0;
#X connect 118 2 109 0;
#X connect 119 0 113 0;
#X connect 120 1 97 0;
#X connect 121 1 98 0;
#X connect 122 1 99 0;
#X connect 123 0 77 0;
