#N canvas 717 27 1439 949 10;
#X obj 469 127 gemwin;
#X msg 469 80 create;
#X msg 527 110 destroy;
#X msg 220 511 draw fill;
#X obj 298 492 pix_texture;
#X obj 298 192 pix_video;
#X msg 243 175 dialog;
#X obj 225 678 hsl 128 15 0 1 0 0 empty empty threshold -2 -8 0 10
-262144 -1 -1 3493 1;
#X obj 298 528 rectangle 5.33 4;
#X msg 527 79 dimen 640 480;
#X obj 499 315 s x;
#X obj 636 241 counter;
#X msg 655 183 0;
#X msg 665 202 0;
#X obj 636 355 counter;
#X msg 655 297 0;
#X msg 665 316 0;
#X obj 101 244 translateXYZ;
#X obj 124 216 r x;
#X floatatom 499 285 5 0 0 0 - - -;
#X floatatom 636 405 5 0 0 0 - - -;
#X obj 636 440 s y;
#X msg 675 221 15;
#X obj 147 216 r y;
#X obj 636 272 select 0;
#X msg 675 335 11;
#X obj 101 155 pix_separator;
#X obj 101 130 gemhead 55;
#X obj 221 199 loadbang;
#X msg 221 223 horizontal;
#X obj 298 240 pix_flip;
#X obj 507 443 pix_separator;
#X obj 492 514 pix_data;
#X obj 101 273 square 0.33;
#X floatatom 222 704 5 0 0 0 - - -;
#X obj 499 258 expr $f1 / 1.5 - 5;
#X obj 636 379 expr $f1 / 1.5 - 3.66;
#X obj 298 217 pix_rgba;
#X obj 298 349 alpha;
#X obj 24 366 pix_histo;
#X obj 23 399 table tab-h;
#X obj 98 399 table tab-s;
#X obj 23 421 table tab-v;
#X obj 222 728 s high;
#X obj 84 678 hsl 128 15 0 0.1 0 0 empty empty threshold -2 -8 0 10
-262144 -1 -1 12700 1;
#X floatatom 81 704 5 0 0 0 - - -;
#X obj 81 728 s low;
#X obj 247 307 r low;
#X obj 298 165 gemhead 49;
#X obj 298 302 pix_background;
#X msg 237 285 reset;
#X msg 379 275 \$1 \$1 \$1;
#X obj 178 332 pix_movement;
#X obj 815 280 loadbang;
#X obj 812 166 loadbang;
#X obj 24 316 loadbang;
#X obj 379 253 r high;
#X obj 98 421 table tab-a;
#X msg 24 340 set tab-h tab-s tab-v;
#X floatatom 1240 148 5 0 0 3 Bk_lvs - -;
#X obj 298 426 trigger a a;
#X floatatom 550 339 5 0 0 0 - - -;
#X obj 550 366 s px;
#X floatatom 700 446 5 0 0 0 - - -;
#X obj 700 421 / 4;
#X obj 550 301 / 5.33;
#X obj 700 469 s py;
#X obj 527 180 s m_bang;
#X obj 430 497 r m_bang;
#X obj 522 469 r px;
#X obj 537 490 r py;
#X floatatom 514 579 5 0 0 0 - - -;
#X floatatom 548 579 5 0 0 0 - - -;
#X floatatom 583 579 5 0 0 0 - - -;
#X obj 514 548 unpack f f f f;
#X floatatom 618 579 5 0 0 0 - - -;
#X obj 618 599 > 0;
#X obj 1128 81 select 0 1 2 3 4 5 6 7;
#X obj 901 22 r selected_color;
#X obj 518 707 s selected_color;
#X obj 1240 108 f;
#X floatatom 1224 221 5 0 0 3 W_lvs - -;
#X obj 1224 181 f;
#X floatatom 1208 299 5 0 0 3 M_lvs - -;
#X obj 1208 259 f;
#X floatatom 1192 378 5 0 0 3 B_lvs - -;
#X obj 1192 338 f;
#X floatatom 1176 455 5 0 0 3 C_lvs - -;
#X obj 1176 415 f;
#X floatatom 1160 530 5 0 0 3 G_lvs - -;
#X obj 1160 490 f;
#X floatatom 1144 610 5 0 0 3 Y_lvs - -;
#X obj 1144 570 f;
#X floatatom 1128 690 5 0 0 3 R_lvs - -;
#X obj 1128 650 f;
#X obj 101 62 s start;
#X obj 101 23 tgl 30 0 empty empty START 32 15 0 20 -262144 -1 -1 1
1;
#X obj 636 123 r start;
#X obj 355 110 r start;
#X obj 1143 667 + 0.1;
#X obj 1159 587 + 0.1;
#X obj 1175 507 + 0.1;
#X obj 1191 432 + 0.1;
#X obj 1207 355 + 0.1;
#X obj 1223 276 + 0.1;
#X obj 1239 198 + 0.1;
#X obj 1255 125 + 0.1;
#X floatatom 1128 57 5 0 0 0 - - -;
#X obj 298 391 pix_contrast;
#X floatatom 367 357 5 0 0 0 - - -;
#X obj 518 651 binColor;
#X msg 81 641 0.53;
#X msg 222 640 0.275;
#X obj 432 23 loadbang;
#X obj 432 46 trigger b b b;
#X obj 152 588 loadbang;
#X text 296 148 Display Video;
#X text 101 109 Display Square;
#X text 607 106 Sends Coordinates for Calculations;
#X text 102 310 unused at moment;
#X text 1175 56 Found Colors;
#X obj 901 44 unpack f f f;
#X obj 901 389 select 1;
#X obj 935 303 select 1;
#X obj 970 177 select 1;
#X floatatom 970 461 5 0 0 0 - - -;
#X obj 901 461 tgl 15 0 empty empty empty 17 7 0 10 -262144 -1 -1 0
1;
#X floatatom 1004 365 5 0 0 0 - - -;
#X obj 935 365 tgl 15 0 empty empty empty 17 7 0 10 -262144 -1 -1 0
1;
#X floatatom 1039 244 5 0 0 0 - - -;
#X obj 970 244 tgl 15 0 empty empty empty 17 7 0 10 -262144 -1 -1 0
1;
#X floatatom 828 513 5 0 0 3 G_lvs - -;
#X obj 828 473 f;
#X floatatom 812 593 5 0 0 3 Y_lvs - -;
#X obj 812 553 f;
#X floatatom 796 673 5 0 0 3 R_lvs - -;
#X obj 796 633 f;
#X obj 811 650 + 0.1;
#X obj 827 570 + 0.1;
#X obj 843 490 + 0.1;
#X obj 901 427 DecayCounter;
#X obj 935 331 DecayCounter;
#X obj 970 210 DecayCounter;
#X obj 101 197 color;
#X obj 419 572 s color;
#X obj 128 175 r color;
#X msg 24 256 draw fill;
#X obj 636 163 metro 1;
#X connect 1 0 0 0;
#X connect 2 0 0 0;
#X connect 3 0 8 0;
#X connect 4 0 8 0;
#X connect 5 0 37 0;
#X connect 6 0 5 0;
#X connect 7 0 34 0;
#X connect 9 0 0 0;
#X connect 11 0 24 0;
#X connect 11 0 35 0;
#X connect 12 0 11 2;
#X connect 13 0 11 3;
#X connect 14 0 36 0;
#X connect 15 0 14 2;
#X connect 16 0 14 3;
#X connect 17 0 33 0;
#X connect 18 0 17 1;
#X connect 19 0 10 0;
#X connect 19 0 65 0;
#X connect 20 0 21 0;
#X connect 20 0 64 0;
#X connect 22 0 11 4;
#X connect 23 0 17 2;
#X connect 24 0 14 0;
#X connect 25 0 14 4;
#X connect 26 0 143 0;
#X connect 27 0 26 0;
#X connect 28 0 29 0;
#X connect 29 0 30 0;
#X connect 30 0 49 0;
#X connect 31 0 32 1;
#X connect 32 1 74 0;
#X connect 32 1 144 0;
#X connect 34 0 43 0;
#X connect 35 0 19 0;
#X connect 36 0 20 0;
#X connect 37 0 30 0;
#X connect 38 0 108 0;
#X connect 44 0 45 0;
#X connect 45 0 46 0;
#X connect 47 0 52 1;
#X connect 48 0 5 0;
#X connect 49 0 38 0;
#X connect 50 0 49 0;
#X connect 51 0 49 1;
#X connect 52 0 38 0;
#X connect 53 0 15 0;
#X connect 53 0 16 0;
#X connect 53 0 25 0;
#X connect 54 0 12 0;
#X connect 54 0 13 0;
#X connect 54 0 22 0;
#X connect 55 0 58 0;
#X connect 56 0 51 0;
#X connect 58 0 39 0;
#X connect 60 0 4 0;
#X connect 60 1 31 0;
#X connect 61 0 62 0;
#X connect 63 0 66 0;
#X connect 64 0 63 0;
#X connect 65 0 61 0;
#X connect 68 0 32 0;
#X connect 69 0 32 2;
#X connect 70 0 32 3;
#X connect 71 0 110 1;
#X connect 72 0 110 2;
#X connect 73 0 110 3;
#X connect 74 0 71 0;
#X connect 74 1 72 0;
#X connect 74 2 73 0;
#X connect 74 3 75 0;
#X connect 75 0 76 0;
#X connect 76 0 110 0;
#X connect 77 0 94 0;
#X connect 77 1 92 0;
#X connect 77 2 90 0;
#X connect 77 3 88 0;
#X connect 77 4 86 0;
#X connect 77 5 84 0;
#X connect 77 6 82 0;
#X connect 77 7 80 0;
#X connect 78 0 121 0;
#X connect 80 0 59 0;
#X connect 80 0 106 0;
#X connect 82 0 81 0;
#X connect 82 0 105 0;
#X connect 84 0 83 0;
#X connect 84 0 104 0;
#X connect 86 0 85 0;
#X connect 86 0 103 0;
#X connect 88 0 87 0;
#X connect 88 0 102 0;
#X connect 90 0 89 0;
#X connect 90 0 101 0;
#X connect 92 0 91 0;
#X connect 92 0 100 0;
#X connect 94 0 93 0;
#X connect 94 0 99 0;
#X connect 96 0 95 0;
#X connect 97 0 147 0;
#X connect 98 0 0 0;
#X connect 99 0 94 1;
#X connect 100 0 92 1;
#X connect 101 0 90 1;
#X connect 102 0 88 1;
#X connect 103 0 86 1;
#X connect 104 0 84 1;
#X connect 105 0 82 1;
#X connect 106 0 80 1;
#X connect 107 0 77 0;
#X connect 108 0 60 0;
#X connect 109 0 108 2;
#X connect 110 0 79 0;
#X connect 111 0 44 0;
#X connect 112 0 7 0;
#X connect 113 0 114 0;
#X connect 114 1 1 0;
#X connect 114 2 9 0;
#X connect 115 0 111 0;
#X connect 115 0 112 0;
#X connect 121 0 122 0;
#X connect 121 1 123 0;
#X connect 121 2 124 0;
#X connect 122 0 136 0;
#X connect 122 0 140 0;
#X connect 123 0 134 0;
#X connect 123 0 141 0;
#X connect 124 0 132 0;
#X connect 124 0 142 0;
#X connect 132 0 131 0;
#X connect 132 0 139 0;
#X connect 134 0 133 0;
#X connect 134 0 138 0;
#X connect 136 0 135 0;
#X connect 136 0 137 0;
#X connect 137 0 136 1;
#X connect 138 0 134 1;
#X connect 139 0 132 1;
#X connect 140 0 126 0;
#X connect 140 1 125 0;
#X connect 141 0 128 0;
#X connect 141 1 127 0;
#X connect 142 0 130 0;
#X connect 142 1 129 0;
#X connect 143 0 17 0;
#X connect 145 0 143 1;
#X connect 146 0 33 0;
#X connect 147 0 11 0;
#X connect 147 0 67 0;
