#N canvas 674 51 1209 842 10;
#X obj 725 148 gemwin;
#X msg 725 80 create;
#X msg 783 131 destroy;
#X msg 23 481 draw fill;
#X obj 101 468 pix_texture;
#X obj 101 142 pix_video;
#X msg 21 125 dialog;
#X obj 470 132 hsl 128 15 0 1 0 0 empty empty threshold -2 -8 0 10
-262144 -1 -1 3493 1;
#X obj 101 498 rectangle 5.33 4;
#X msg 776 80 dimen 640 480;
#X obj 21 155 loadbang;
#X msg 21 185 horizontal;
#X obj 101 202 pix_flip;
#X floatatom 467 158 5 0 0 0 - - -;
#X obj 101 172 pix_rgba;
#X obj 101 294 alpha;
#X obj 467 182 s high;
#X obj 329 132 hsl 128 15 0 0.1 0 0 empty empty threshold -2 -8 0 10
-262144 -1 -1 12700 1;
#X floatatom 326 158 5 0 0 0 - - -;
#X obj 326 182 s low;
#X obj 101 112 gemhead 49;
#X obj 101 264 pix_background;
#X msg 21 247 reset;
#X msg 182 234 \$1 \$1 \$1;
#X obj 182 204 r high;
#X obj 101 61 s start;
#X obj 101 23 tgl 25 0 empty empty START 27 14 0 12 -4034 -1 -1 1 1
;
#X obj 611 131 r start;
#X msg 326 95 0.53;
#X msg 467 94 0.275;
#X obj 688 20 loadbang;
#X obj 688 50 trigger b b b;
#X obj 397 42 loadbang;
#X text 99 95 Display Video;
#X obj 101 324 trigger a a a;
#X obj 21 23 pddp/dsp;
#X msg 150 48 \; pd dsp \$1;
#X floatatom 138 408 5 0 0 0 - - -;
#X floatatom 213 408 5 0 0 0 - - -;
#X obj 213 378 VolumeSelect;
#X obj 138 438 MusicSelector;
#X obj 317 512 bng 15 250 50 0 empty empty empty 17 7 0 10 -262144
-1 -1;
#X msg 206 136 device 0;
#X obj 138 378 TrackSelect;
#X connect 1 0 0 0;
#X connect 2 0 0 0;
#X connect 3 0 8 0;
#X connect 4 0 8 0;
#X connect 5 0 14 0;
#X connect 6 0 5 0;
#X connect 7 0 13 0;
#X connect 9 0 0 0;
#X connect 10 0 11 0;
#X connect 11 0 12 0;
#X connect 12 0 21 0;
#X connect 13 0 16 0;
#X connect 14 0 12 0;
#X connect 15 0 34 0;
#X connect 17 0 18 0;
#X connect 18 0 19 0;
#X connect 20 0 5 0;
#X connect 21 0 15 0;
#X connect 22 0 21 0;
#X connect 23 0 21 1;
#X connect 24 0 23 0;
#X connect 26 0 25 0;
#X connect 26 0 36 0;
#X connect 27 0 0 0;
#X connect 28 0 17 0;
#X connect 29 0 7 0;
#X connect 30 0 31 0;
#X connect 31 1 1 0;
#X connect 31 2 9 0;
#X connect 32 0 28 0;
#X connect 32 0 29 0;
#X connect 34 0 4 0;
#X connect 34 1 39 0;
#X connect 34 1 43 0;
#X connect 37 0 40 0;
#X connect 38 0 40 1;
#X connect 39 0 38 0;
#X connect 41 0 37 0;
#X connect 42 0 5 0;
#X connect 43 0 37 0;
