#N canvas 674 51 1209 842 10;
#X obj 398 176 gemwin;
#X msg 398 108 create;
#X msg 478 159 destroy;
#X msg 23 509 draw fill;
#X obj 101 496 pix_texture;
#X obj 101 142 pix_video;
#X msg 21 125 dialog;
#X obj 364 305 hsl 128 15 0 1 0 0 empty empty threshold 2 -8 0 10 -262144
-1 -1 3493 1;
#X obj 101 526 rectangle 5.33 4;
#X msg 449 108 dimen 640 480;
#X obj 21 155 loadbang;
#X msg 21 185 horizontal;
#X obj 101 202 pix_flip;
#X floatatom 361 333 5 0 0 0 - - high;
#X obj 101 172 pix_rgba;
#X obj 101 292 alpha;
#X obj 101 112 gemhead 49;
#X obj 101 262 pix_background;
#X msg 21 245 reset;
#X msg 182 232 \$1 \$1 \$1;
#X obj 182 202 r high;
#X obj 101 23 tgl 25 0 start empty START 27 14 0 12 -4034 -1 -1 1 1
;
#X obj 318 159 r start;
#X msg 361 268 0.275;
#X obj 361 48 loadbang;
#X obj 361 78 trigger b b b;
#X obj 361 238 loadbang;
#X text 99 95 Display Video;
#X obj 101 322 trigger a a a;
#X obj 101 59 pddp/dsp;
#X msg 561 188 \; pd dsp \$1;
#X floatatom 138 406 5 0 0 0 - - -;
#X floatatom 213 436 5 0 0 0 - - -;
#X obj 213 376 VolumeSelect;
#X obj 138 466 MusicSelector;
#X msg 206 125 device 0;
#X obj 138 376 TrackSelect;
#X obj 21 215 r delaystart;
#X obj 588 158 s delaystart;
#X obj 561 158 tgl 15 0 empty empty empty 17 7 0 10 -262144 -1 -1 1
1;
#X obj 213 407 expr if($f1 > 0.25 \, 1 \, $f1 * 4);
#X obj 561 98 delay 10;
#X obj 561 68 r start;
#X obj 561 128 t b b;
#X connect 1 0 0 0;
#X connect 2 0 0 0;
#X connect 3 0 8 0;
#X connect 4 0 8 0;
#X connect 5 0 14 0;
#X connect 6 0 5 0;
#X connect 7 0 13 0;
#X connect 9 0 0 0;
#X connect 10 0 11 0;
#X connect 11 0 12 0;
#X connect 12 0 17 0;
#X connect 14 0 12 0;
#X connect 15 0 28 0;
#X connect 16 0 5 0;
#X connect 17 0 15 0;
#X connect 18 0 17 0;
#X connect 19 0 17 1;
#X connect 20 0 19 0;
#X connect 22 0 0 0;
#X connect 23 0 7 0;
#X connect 24 0 25 0;
#X connect 25 1 1 0;
#X connect 25 2 9 0;
#X connect 26 0 23 0;
#X connect 28 0 4 0;
#X connect 28 1 33 0;
#X connect 28 1 36 0;
#X connect 31 0 34 0;
#X connect 32 0 34 1;
#X connect 33 0 40 0;
#X connect 35 0 5 0;
#X connect 36 0 31 0;
#X connect 37 0 18 0;
#X connect 39 0 30 0;
#X connect 40 0 32 0;
#X connect 41 0 43 0;
#X connect 42 0 41 0;
#X connect 43 0 39 0;
#X connect 43 1 38 0;
