#N canvas 857 81 977 681 10;
#X obj 69 107 gemwin;
#X msg 33 59 create;
#X msg 84 59 destroy;
#X obj 264 67 pix_video;
#X obj 175 246 pix_texture;
#X msg 140 61 dimen 800 600;
#X obj 265 98 pix_rgba;
#X obj 8 62 tgl 15 0 empty empty empty 17 7 0 10 -262144 -1 -1 1 1
;
#X obj 302 298 pix_blob;
#X floatatom 281 335 5 0 0 0 - - -;
#X floatatom 318 335 5 0 0 0 - - -;
#X floatatom 355 337 5 0 0 0 - - -;
#X obj 303 241 pix_movement;
#X obj 393 218 hsl 128 15 0 1 0 0 empty empty empty -2 -8 0 10 -262144
-1 -1 200 1;
#X obj 303 266 alpha;
#X obj 353 273 hradio 15 1 0 8 empty empty empty 0 -8 0 10 -262144
-1 -1 4;
#X obj 264 136 pix_flip;
#X msg 191 98 horizontal;
#X obj 262 29 gemhead 50;
#X obj 261 167 trigger a a;
#X obj 304 205 pix_separator;
#X obj 176 203 pix_separator;
#X obj 6 9 pddp/dsp;
#X obj 171 294 rectangle 5.33 4;
#X obj 635 80 r n;
#X obj 261 442 s n;
#X obj 584 80 noise~;
#X obj 583 370 dac~;
#X obj 584 130 spigot~;
#X obj 239 444 tgl 15 0 empty empty empty 17 7 0 10 -262144 -1 -1 0
1;
#X obj 586 327 *~;
#X obj 604 253 hsl 128 15 0 1 0 0 empty empty empty -2 -8 0 10 -262144
-1 -1 700 1;
#X obj 601 169 r n;
#X obj 288 443 tgl 15 0 empty empty empty 17 7 0 10 -262144 -1 -1 0
1;
#X obj 338 443 tgl 15 0 empty empty empty 17 7 0 10 -262144 -1 -1 0
1;
#X obj 306 441 s n1;
#X obj 357 441 s n2;
#X obj 644 151 r n1;
#X obj 691 136 r n2;
#X obj 666 79 r n1;
#X obj 704 79 r n2;
#X obj 647 230 hsl 128 15 0 1 0 0 empty empty empty -2 -8 0 10 -262144
-1 -1 4700 1;
#X obj 694 205 hsl 128 15 0 1 0 0 empty empty empty -2 -8 0 10 -262144
-1 -1 12700 1;
#X obj 306 409 > 0.85;
#X obj 357 409 > 0.9;
#X obj 261 409 < 0.1;
#X obj 602 215 spigot;
#X obj 644 184 spigot;
#X obj 691 167 spigot;
#X connect 1 0 0 0;
#X connect 2 0 0 0;
#X connect 3 0 6 0;
#X connect 4 0 23 0;
#X connect 5 0 0 0;
#X connect 6 0 16 0;
#X connect 7 0 0 0;
#X connect 8 1 9 0;
#X connect 8 2 10 0;
#X connect 8 3 11 0;
#X connect 11 0 45 0;
#X connect 12 0 14 0;
#X connect 13 0 12 1;
#X connect 14 0 8 0;
#X connect 15 0 8 1;
#X connect 16 0 19 0;
#X connect 17 0 16 0;
#X connect 18 0 3 0;
#X connect 19 0 21 0;
#X connect 19 1 20 0;
#X connect 20 0 12 0;
#X connect 21 0 4 0;
#X connect 24 0 28 1;
#X connect 26 0 28 0;
#X connect 28 0 30 0;
#X connect 30 0 27 0;
#X connect 30 0 27 1;
#X connect 31 0 30 1;
#X connect 32 0 46 0;
#X connect 37 0 47 0;
#X connect 38 0 48 0;
#X connect 39 0 28 1;
#X connect 40 0 28 1;
#X connect 41 0 30 1;
#X connect 42 0 30 1;
#X connect 43 0 35 0;
#X connect 43 0 33 0;
#X connect 44 0 36 0;
#X connect 44 0 34 0;
#X connect 45 0 25 0;
#X connect 45 0 29 0;
#X connect 46 0 31 0;
#X connect 47 0 41 0;
#X connect 48 0 42 0;
