#N canvas 513 115 747 462 10;
#X obj 292 33 inlet;
#X obj 329 33 inlet;
#X obj 212 373 outlet;
#X obj 273 157 f;
#X obj 309 157 f;
#X obj 119 140 trigger b b b;
#X obj 255 33 inlet;
#X obj 240 157 f;
#X obj 119 40 inlet;
#X obj 119 70 select 1;
#X obj 212 350 pack f f f;
#X obj 240 215 spigot;
#X obj 273 187 expr if($f1 > 0.33 && $f2 > 0.2 && $f2 < 0.8 \, 1 \,
0);
#X obj 269 299 expr if($f1 >= 0.66 || $f1 < 0.22 \, 1 \, 0);
#X obj 212 260 expr if($f1 >= 0.22 && $f1 < 0.33 \, 1 \, 0);
#X obj 240 279 expr if($f1 >= 0.33 && $f1 < 0.77 \, 1 \, 0);
#X obj 255 63 pack f f f;
#X obj 255 93 rgb2hsv;
#X obj 255 123 unpack f f f;
#X connect 0 0 16 1;
#X connect 1 0 16 2;
#X connect 3 0 12 0;
#X connect 4 0 12 1;
#X connect 5 0 7 0;
#X connect 5 1 3 0;
#X connect 5 2 4 0;
#X connect 6 0 16 0;
#X connect 7 0 11 0;
#X connect 8 0 9 0;
#X connect 9 0 5 0;
#X connect 10 0 2 0;
#X connect 11 0 13 0;
#X connect 11 0 14 0;
#X connect 11 0 15 0;
#X connect 12 0 11 1;
#X connect 13 0 10 2;
#X connect 14 0 10 0;
#X connect 15 0 10 1;
#X connect 16 0 17 0;
#X connect 17 0 18 0;
#X connect 18 0 7 1;
#X connect 18 1 3 1;
#X connect 18 2 4 1;
