#N canvas 49 524 882 437 10;
#X obj 317 -14 inlet;
#X obj 356 -14 inlet;
#X obj 274 356 outlet;
#X obj 274 105 pack f f f;
#X obj 41 173 select 1;
#X msg 41 316 0;
#X obj 41 150 isRed;
#X obj 98 151 isYellow;
#X msg 98 316 1;
#X obj 98 174 select 1;
#X obj 156 174 select 1;
#X msg 156 316 2;
#X obj 156 151 isGreen;
#X obj 302 67 f;
#X obj 341 67 f;
#X obj 169 19 trigger b b b;
#X obj 278 -14 inlet;
#X obj 263 67 f;
#X obj 169 -33 inlet;
#X obj 216 174 select 1;
#X obj 216 151 isCyan;
#X msg 216 316 3;
#X obj 274 174 select 1;
#X obj 274 151 isBlue;
#X msg 274 316 4;
#X obj 331 174 select 1;
#X msg 331 316 5;
#X obj 331 151 isMagenta;
#X obj 395 174 select 1;
#X obj 461 174 select 1;
#X obj 395 151 isWhite;
#X obj 461 151 isBlack;
#X msg 461 316 7;
#X msg 395 316 6;
#X obj 169 -8 select 1;
#X floatatom 1356 -411 5 0 0 0 - - -;
#X connect 0 0 13 1;
#X connect 1 0 14 1;
#X connect 3 0 6 0;
#X connect 3 0 7 0;
#X connect 3 0 12 0;
#X connect 3 0 20 0;
#X connect 3 0 23 0;
#X connect 3 0 27 0;
#X connect 3 0 30 0;
#X connect 3 0 31 0;
#X connect 4 0 5 0;
#X connect 5 0 2 0;
#X connect 6 0 4 0;
#X connect 7 0 9 0;
#X connect 8 0 2 0;
#X connect 9 0 8 0;
#X connect 10 0 11 0;
#X connect 11 0 2 0;
#X connect 12 0 10 0;
#X connect 13 0 3 1;
#X connect 14 0 3 2;
#X connect 15 0 17 0;
#X connect 15 1 13 0;
#X connect 15 2 14 0;
#X connect 16 0 17 1;
#X connect 17 0 3 0;
#X connect 18 0 34 0;
#X connect 19 0 21 0;
#X connect 20 0 19 0;
#X connect 21 0 2 0;
#X connect 22 0 24 0;
#X connect 23 0 22 0;
#X connect 24 0 2 0;
#X connect 25 0 26 0;
#X connect 26 0 2 0;
#X connect 27 0 25 0;
#X connect 28 0 33 0;
#X connect 29 0 32 0;
#X connect 30 0 28 0;
#X connect 31 0 29 0;
#X connect 32 0 2 0;
#X connect 33 0 2 0;
#X connect 34 0 15 0;
