#N canvas 513 115 1441 444 10;
#X obj 315 29 inlet;
#X obj 352 29 inlet;
#X obj 272 204 outlet;
#X obj 906 75 pack f f f;
#X obj 673 143 select 1;
#X msg 673 167 0;
#X obj 673 120 isRed;
#X obj 730 121 isYellow;
#X msg 730 167 1;
#X obj 730 144 select 1;
#X obj 788 144 select 1;
#X msg 788 167 2;
#X obj 788 121 isGreen;
#X obj 300 67 f;
#X obj 337 67 f;
#X obj 169 29 trigger b b b;
#X obj 278 29 inlet;
#X obj 263 67 f;
#X obj 169 -17 inlet;
#X obj 848 144 select 1;
#X obj 848 121 isCyan;
#X msg 848 167 3;
#X obj 906 144 select 1;
#X obj 906 121 isBlue;
#X msg 906 167 4;
#X obj 963 144 select 1;
#X msg 963 167 5;
#X obj 963 121 isMagenta;
#X obj 1027 144 select 1;
#X obj 1093 144 select 1;
#X obj 1027 121 isWhite;
#X obj 1093 121 isBlack;
#X msg 1093 167 7;
#X msg 1027 167 6;
#X obj 169 6 select 1;
#X obj 272 181 pack f f f;
#X obj 501 72 s c_thresh;
#X obj 504 25 hsl 128 15 0 1 0 0 empty empty empty -2 -8 0 10 -262144
-1 -1 3810 1;
#X obj 501 -21 loadbang;
#X obj 364 66 r c_tresh;
#X floatatom 501 49 5 0 0 0 - - -;
#X msg 501 3 0.3;
#X obj 337 143 > 0.4;
#X obj 300 143 > 0.4;
#X obj 263 143 > 0.4;
#X connect 0 0 13 1;
#X connect 1 0 14 1;
#X connect 3 0 6 0;
#X connect 3 0 7 0;
#X connect 3 0 12 0;
#X connect 3 0 20 0;
#X connect 3 0 23 0;
#X connect 3 0 27 0;
#X connect 3 0 30 0;
#X connect 3 0 31 0;
#X connect 4 0 5 0;
#X connect 6 0 4 0;
#X connect 7 0 9 0;
#X connect 9 0 8 0;
#X connect 10 0 11 0;
#X connect 12 0 10 0;
#X connect 13 0 43 0;
#X connect 14 0 42 0;
#X connect 15 0 17 0;
#X connect 15 1 13 0;
#X connect 15 2 14 0;
#X connect 16 0 17 1;
#X connect 17 0 44 0;
#X connect 18 0 34 0;
#X connect 19 0 21 0;
#X connect 20 0 19 0;
#X connect 22 0 24 0;
#X connect 23 0 22 0;
#X connect 25 0 26 0;
#X connect 27 0 25 0;
#X connect 28 0 33 0;
#X connect 29 0 32 0;
#X connect 30 0 28 0;
#X connect 31 0 29 0;
#X connect 34 0 15 0;
#X connect 35 0 2 0;
#X connect 37 0 40 0;
#X connect 38 0 41 0;
#X connect 39 0 42 1;
#X connect 39 0 43 1;
#X connect 39 0 44 1;
#X connect 40 0 36 0;
#X connect 41 0 37 0;
#X connect 42 0 35 2;
#X connect 43 0 35 1;
#X connect 44 0 35 0;
