#N canvas 310 206 812 300 10;
#X obj 58 16 inlet;
#X obj 258 15 inlet;
#X obj 58 57 unpack f f f;
#X obj 258 55 unpack f f f;
#X obj 26 102 expr sqrt(($f1-$f4)*($f1-$f4)) + (($f2-$f5)*($f2-$f5))
+ (($f3-$f6)*($f3-$f6));
#X obj 26 162 outlet;
#X connect 0 0 2 0;
#X connect 1 0 3 0;
#X connect 2 0 4 0;
#X connect 2 1 4 1;
#X connect 2 2 4 2;
#X connect 3 0 4 3;
#X connect 3 1 4 4;
#X connect 3 2 4 5;
#X connect 4 0 5 0;
