#N canvas 6 95 1322 687 10;
#X obj 227 442 outlet;
#X obj 255 13 inlet;
#X obj 227 419 pack f f f;
#X obj 255 284 spigot;
#X obj 255 133 rgb2hsv;
#X obj 255 163 unpack f f f;
#X obj 336 86 > 0;
#X obj 255 43 unpack f f f f;
#X obj 255 73 pack f f f;
#X obj 255 103 spigot;
#X obj 274 223 f;
#X obj 255 193 t f b b;
#X obj 507 210 f;
#X obj 227 329 expr if($f1 < 0.16 || $f1 > 0.83 \, 1 \, 0);
#X obj 255 349 expr if($f1 >= 0.16 && $f1 < 0.5 \, 1 \, 0);
#X obj 284 368 expr if($f1 >= 0.5 && $f1 <= 0.83 \, 1 \, 0);
#X obj 288 254 expr if($f1 > 0.3 && $f2 > 0.2 \, 1 \, 0);
#X connect 1 0 7 0;
#X connect 2 0 0 0;
#X connect 3 0 13 0;
#X connect 3 0 14 0;
#X connect 3 0 15 0;
#X connect 4 0 5 0;
#X connect 5 0 11 0;
#X connect 5 1 10 1;
#X connect 5 2 12 1;
#X connect 6 0 9 1;
#X connect 7 0 8 0;
#X connect 7 1 8 1;
#X connect 7 2 8 2;
#X connect 7 3 6 0;
#X connect 8 0 9 0;
#X connect 9 0 4 0;
#X connect 10 0 16 0;
#X connect 11 0 3 0;
#X connect 11 1 10 0;
#X connect 11 2 12 0;
#X connect 12 0 16 1;
#X connect 13 0 2 0;
#X connect 14 0 2 1;
#X connect 15 0 2 2;
#X connect 16 0 3 1;
