#N canvas 12 16 934 888 10;
#X obj 138 18 inlet;
#X obj 138 48 pix_separator;
#X obj 123 148 pix_data;
#X obj 63 131 r m_bang;
#X obj 153 108 r px;
#X obj 168 128 r py;
#X floatatom 145 208 5 0 0 0 - - -;
#X floatatom 180 208 5 0 0 0 - - -;
#X floatatom 215 208 5 0 0 0 - - -;
#X obj 145 178 unpack f f f f;
#X floatatom 250 208 5 0 0 0 - - -;
#X obj 250 237 > 0;
#X obj 92 218 s color;
#X obj 138 78 rgb2hsv;
#X obj 150 274 binColor;
#X obj 150 304 unpack f f f;
#X obj 150 394 select 1;
#X obj 184 364 select 1;
#X obj 219 334 select 1;
#X floatatom 279 439 5 0 0 0 - - -;
#X floatatom 313 415 5 0 0 0 - - -;
#X floatatom 348 381 5 0 0 0 - - -;
#X floatatom 191 750 5 0 0 0 - - -;
#X floatatom 168 564 5 0 0 0 - - -;
#X floatatom 313 564 5 0 0 0 - - -;
#X floatatom 459 563 5 0 0 0 - - -;
#X obj 168 606 expr if ($f1 > $f2 \, $f1 \, $f2);
#X obj 206 661 expr if ($f1 > $f2 \, $f1 \, $f2);
#X obj 191 720 f;
#X obj 191 779 change;
#X floatatom 206 691 5 0 0 0 - - -;
#X obj 168 508 expr if($f1 > 50 && $f1 > \$2 && $f1 > $f3 \, 1 \, 1)
\; if($f2 > 50 && $f2 > $f1 && $f2 > $f3 \, 2 \, 1) \; if($f3 > 50
&& $f3 > $f1 && $f3 > $f2 \, 3 \, 1);
#X obj 95 703 metro 1000;
#X obj 210 411 DecayCounter;
#X obj 244 381 DecayCounter;
#X obj 279 351 DecayCounter;
#X obj 95 675 tgl 15 0 empty empty empty 17 7 0 10 -262144 -1 -1 0
1;
#X obj 191 809 outlet;
#X obj 404 188 counter;
#X msg 423 130 0;
#X msg 433 149 0;
#X obj 404 302 counter;
#X msg 423 244 0;
#X msg 433 263 0;
#X floatatom 404 352 5 0 0 0 - - -;
#X obj 404 387 s y;
#X msg 443 168 15;
#X obj 404 219 select 0;
#X msg 443 282 11;
#X obj 404 326 expr $f1 / 1.5 - 3.66;
#X obj 583 227 loadbang;
#X obj 580 113 loadbang;
#X floatatom 468 393 5 0 0 0 - - -;
#X obj 468 368 / 4;
#X obj 468 416 s py;
#X obj 295 127 s m_bang;
#X text 375 53 Sends Coordinates for Calculations;
#X obj 404 110 metro 1;
#X obj 404 70 r start;
#X obj 95 645 r start;
#X connect 0 0 1 0;
#X connect 1 0 13 0;
#X connect 2 1 9 0;
#X connect 2 1 12 0;
#X connect 3 0 2 0;
#X connect 4 0 2 2;
#X connect 5 0 2 3;
#X connect 6 0 14 1;
#X connect 7 0 14 2;
#X connect 8 0 14 3;
#X connect 9 0 6 0;
#X connect 9 1 7 0;
#X connect 9 2 8 0;
#X connect 9 3 10 0;
#X connect 10 0 11 0;
#X connect 11 0 14 0;
#X connect 13 0 2 1;
#X connect 14 0 15 0;
#X connect 15 0 16 0;
#X connect 15 1 17 0;
#X connect 15 2 18 0;
#X connect 16 0 33 0;
#X connect 17 0 34 0;
#X connect 18 0 35 0;
#X connect 19 0 31 0;
#X connect 20 0 31 1;
#X connect 21 0 31 2;
#X connect 22 0 29 0;
#X connect 23 0 26 0;
#X connect 24 0 26 1;
#X connect 25 0 27 1;
#X connect 26 0 27 0;
#X connect 27 0 30 0;
#X connect 28 0 22 0;
#X connect 29 0 37 0;
#X connect 30 0 28 1;
#X connect 31 0 23 0;
#X connect 31 1 24 0;
#X connect 31 2 25 0;
#X connect 32 0 28 0;
#X connect 33 1 19 0;
#X connect 34 1 20 0;
#X connect 35 1 21 0;
#X connect 36 0 32 0;
#X connect 38 0 47 0;
#X connect 39 0 38 2;
#X connect 40 0 38 3;
#X connect 41 0 49 0;
#X connect 42 0 41 2;
#X connect 43 0 41 3;
#X connect 44 0 45 0;
#X connect 44 0 53 0;
#X connect 46 0 38 4;
#X connect 47 0 41 0;
#X connect 48 0 41 4;
#X connect 49 0 44 0;
#X connect 50 0 42 0;
#X connect 50 0 43 0;
#X connect 50 0 48 0;
#X connect 51 0 39 0;
#X connect 51 0 40 0;
#X connect 51 0 46 0;
#X connect 52 0 54 0;
#X connect 53 0 52 0;
#X connect 57 0 38 0;
#X connect 57 0 55 0;
#X connect 58 0 57 0;
#X connect 59 0 36 0;
