#N canvas 619 255 886 542 10;
#X obj 26 -60 inlet;
#X obj 27 332 outlet;
#X obj 108 334 outlet;
#X obj 68 -60 inlet;
#X obj 68 -38 s min;
#X obj 110 -60 inlet;
#X obj 152 -60 inlet;
#X obj 110 -38 s max;
#X obj 108 190 r total;
#X obj 396 226 r inc;
#X obj 197 -60 inlet;
#X obj 152 -38 s dec;
#X obj 197 -38 s step;
#X obj 453 -29 r step;
#X obj 396 -53 loadbang;
#X obj 396 -26 tgl 15 0 empty empty empty 17 7 0 10 -262144 -1 -1 1
1;
#X obj 396 180 s total;
#X obj 396 383 s total;
#X obj 483 68 r dec;
#X floatatom 108 277 5 0 0 0 - - -;
#X floatatom 423 57 5 0 0 0 - - -;
#X msg 108 218 set \$1;
#X obj 149 276 s new_total;
#X obj 460 40 r new_total;
#X floatatom 396 153 5 0 0 0 - - -;
#X obj 396 73 f;
#X obj 242 -60 inlet;
#X obj 396 22 t b b;
#X msg 523 97 1;
#X obj 523 69 loadbang;
#X obj 612 69 r min;
#X msg 651 97 0;
#X obj 651 69 loadbang;
#X obj 396 125 expr if (($f1 - $f2) > $f3 \, $f1 - $f2 \, $f3);
#X obj 26 -38 s inc;
#X obj 627 270 loadbang;
#X obj 588 270 r max;
#X msg 627 298 100;
#X floatatom 423 282 5 0 0 0 - - -;
#X obj 460 265 r new_total;
#X obj 396 298 f;
#X obj 189 120 s inc;
#X obj 396 -6 metro 1000;
#X obj 189 90 bng 15 250 50 0 empty empty empty 17 7 0 10 -262144 -1
-1;
#X obj 396 254 t b b;
#X floatatom 396 355 5 0 0 0 - - -;
#X obj 396 326 expr if (($f1 + 1) < $f2 \, $f1 + 1 \, $f2);
#X obj 48 246 r $thesh;
#X obj 242 -38 s $thresh;
#X floatatom 27 300 5 0 0 0 - - -;
#X obj 27 274 > 50;
#X floatatom 27 219 5 0 0 0 - - -;
#X floatatom 54 147 5 0 0 0 - - -;
#X obj 89 95 r new_total;
#X obj 27 163 f;
#X obj 27 112 t b b;
#X obj 27 191 expr $f1;
#X connect 0 0 34 0;
#X connect 3 0 4 0;
#X connect 5 0 7 0;
#X connect 6 0 11 0;
#X connect 8 0 21 0;
#X connect 9 0 44 0;
#X connect 10 0 12 0;
#X connect 13 0 42 1;
#X connect 14 0 15 0;
#X connect 15 0 42 0;
#X connect 18 0 33 1;
#X connect 19 0 2 0;
#X connect 20 0 25 1;
#X connect 21 0 19 0;
#X connect 21 0 22 0;
#X connect 23 0 20 0;
#X connect 24 0 16 0;
#X connect 25 0 33 0;
#X connect 26 0 48 0;
#X connect 27 0 25 0;
#X connect 27 1 20 0;
#X connect 28 0 33 1;
#X connect 29 0 28 0;
#X connect 30 0 33 2;
#X connect 31 0 33 2;
#X connect 32 0 31 0;
#X connect 33 0 24 0;
#X connect 35 0 37 0;
#X connect 36 0 46 1;
#X connect 37 0 46 1;
#X connect 38 0 40 1;
#X connect 39 0 38 0;
#X connect 40 0 46 0;
#X connect 42 0 27 0;
#X connect 43 0 41 0;
#X connect 44 0 40 0;
#X connect 44 1 38 0;
#X connect 45 0 17 0;
#X connect 46 0 45 0;
#X connect 47 0 50 1;
#X connect 49 0 1 0;
#X connect 50 0 49 0;
#X connect 51 0 50 0;
#X connect 52 0 54 1;
#X connect 53 0 52 0;
#X connect 53 0 55 0;
#X connect 54 0 56 0;
#X connect 55 0 54 0;
#X connect 55 1 52 0;
#X connect 56 0 51 0;
