#N canvas 679 361 886 542 10;
#X obj 26 -60 inlet;
#X obj 27 377 outlet;
#X obj 123 332 outlet;
#X obj 81 -60 inlet;
#X obj 136 -60 inlet;
#X obj 191 -60 inlet;
#X obj 246 -60 inlet;
#X obj 506 -46 loadbang;
#X obj 506 -19 tgl 15 0 empty empty empty 17 7 0 10 -262144 -1 -1 1
1;
#X floatatom 208 97 5 0 0 0 - - -;
#X floatatom 533 57 5 0 0 0 - - -;
#X floatatom 506 173 5 0 0 0 - - -;
#X obj 506 73 f;
#X obj 311 -60 inlet;
#X obj 506 29 t b b;
#X obj 633 69 loadbang;
#X msg 761 97 0;
#X obj 761 69 loadbang;
#X obj 506 145 expr if (($f1 - $f2) > $f3 \, $f1 - $f2 \, $f3);
#X obj 737 250 loadbang;
#X floatatom 533 282 5 0 0 0 - - -;
#X obj 506 298 f;
#X obj 295 8 bng 15 250 50 0 empty empty empty 17 7 0 10 -262144 -1
-1;
#X obj 506 254 t b b;
#X floatatom 506 355 5 0 0 0 - - -;
#X obj 506 326 expr if (($f1 + 1) < $f2 \, $f1 + 1 \, $f2);
#X floatatom 27 300 5 0 0 0 - - -;
#X floatatom 27 219 5 0 0 0 - - -;
#X floatatom 54 147 5 0 0 0 - - -;
#X obj 27 163 f;
#X obj 27 112 t b b;
#X obj 27 191 expr $f1;
#X floatatom 150 233 5 0 0 0 - - -;
#X obj 123 249 f;
#X obj 123 198 t b b;
#X floatatom 123 305 5 0 0 0 - - -;
#X obj 123 277 expr $f1;
#X obj 27 323 change;
#X obj 27 351 tgl 15 0 empty empty empty 17 7 0 10 -262144 -1 -1 0
1;
#X obj 295 38 s $inc;
#X obj 208 10 r \$0-total;
#X obj 249 96 s \$0-new_total;
#X obj 185 181 r \$0-new_total;
#X obj 48 246 r \$0-thesh;
#X obj 89 95 r \$0-new_total;
#X obj 311 -38 s \$0-thresh;
#X obj 246 -38 s \$0-step;
#X obj 191 -38 s \$0-dec;
#X obj 136 -38 s \$0-max;
#X obj 81 -38 s \$0-min;
#X obj 26 -38 s \$0-inc;
#X obj 557 -22 r \$0-step;
#X obj 544 29 r \$0-new_total;
#X obj 702 69 r \$0-min;
#X obj 506 200 s \$0-total;
#X obj 506 227 r \$0-inc;
#X obj 544 254 r \$0-new_total;
#X obj 677 249 r \$0-max;
#X obj 506 383 s \$0-total;
#X obj 574 69 r \$0-dec;
#X obj 208 38 float \$1;
#X obj 27 274 > 50;
#X obj 506 1 metro 50;
#X msg 737 278 2500;
#X msg 633 97 2;
#X obj 391 -60 inlet;
#X obj 391 -38 s \$0-reset;
#X connect 0 0 50 0;
#X connect 3 0 49 0;
#X connect 4 0 48 0;
#X connect 5 0 47 0;
#X connect 6 0 46 0;
#X connect 7 0 8 0;
#X connect 8 0 62 0;
#X connect 10 0 12 1;
#X connect 11 0 54 0;
#X connect 12 0 18 0;
#X connect 13 0 45 0;
#X connect 14 0 12 0;
#X connect 14 1 10 0;
#X connect 15 0 64 0;
#X connect 16 0 18 2;
#X connect 17 0 16 0;
#X connect 18 0 11 0;
#X connect 19 0 63 0;
#X connect 20 0 21 1;
#X connect 21 0 25 0;
#X connect 22 0 39 0;
#X connect 23 0 21 0;
#X connect 23 1 20 0;
#X connect 24 0 58 0;
#X connect 25 0 24 0;
#X connect 26 0 37 0;
#X connect 27 0 61 0;
#X connect 28 0 29 1;
#X connect 29 0 31 0;
#X connect 30 0 29 0;
#X connect 30 1 28 0;
#X connect 31 0 27 0;
#X connect 32 0 33 1;
#X connect 33 0 36 0;
#X connect 34 0 33 0;
#X connect 34 1 32 0;
#X connect 35 0 2 0;
#X connect 36 0 35 0;
#X connect 37 0 38 0;
#X connect 38 0 1 0;
#X connect 40 0 60 0;
#X connect 42 0 32 0;
#X connect 42 0 34 0;
#X connect 43 0 61 1;
#X connect 44 0 28 0;
#X connect 44 0 30 0;
#X connect 51 0 62 1;
#X connect 52 0 10 0;
#X connect 53 0 18 2;
#X connect 55 0 23 0;
#X connect 56 0 20 0;
#X connect 57 0 25 1;
#X connect 59 0 18 1;
#X connect 60 0 9 0;
#X connect 60 0 41 0;
#X connect 61 0 26 0;
#X connect 62 0 14 0;
#X connect 63 0 25 1;
#X connect 64 0 18 1;
#X connect 65 0 66 0;
