#N canvas 296 306 426 239 10;
#X obj 68 21 inlet;
#X obj 167 74 unpack f f f;
#X obj 68 105 expr ($f1 > ($f2+0.3)) && ($f1 > ($f3 + 0.3));
#X floatatom 68 134 5 0 0 0 - - -;
#X obj 68 161 outlet;
#X obj 68 57 trigger b a;
#X connect 0 0 5 0;
#X connect 1 0 2 0;
#X connect 1 1 2 1;
#X connect 1 2 2 2;
#X connect 2 0 3 0;
#X connect 3 0 4 0;
#X connect 5 0 2 0;
#X connect 5 1 1 0;
