#N canvas 252 87 496 296 10;
#X obj 68 21 inlet;
#X obj 170 74 unpack f f f;
#X floatatom 68 134 5 0 0 0 - - -;
#X obj 68 161 outlet;
#X obj 68 57 trigger b a;
#X obj 68 105 expr ($f1 > 0.7) && ($f2 > 0.7) && ($f3 > 0.7);
#X connect 0 0 4 0;
#X connect 1 0 5 0;
#X connect 1 1 5 1;
#X connect 1 2 5 2;
#X connect 2 0 3 0;
#X connect 4 0 5 0;
#X connect 4 1 1 0;
#X connect 5 0 2 0;
