#N canvas 480 0 1416 976 10;
#X obj -82 -249 bng 25 250 50 0 empty empty Slow 27 14 0 12 -4034 -1
-1;
#X obj 103 -249 bng 25 250 50 0 empty empty STOP 27 14 0 12 -258113
-1 -1;
#X obj 103 -211 s stopEverything;
#X obj -113 -193 s startSlow1;
#X obj -16 -191 s startMed;
#X obj 77 -191 s startFast1;
#N canvas 60 146 450 300 adjustVolume_slow 0;
#X obj 98 96 s slowVolume;
#X obj 169 62 hsl 100 15 0 1 0 0 empty empty empty -2 -8 0 10 -262144
-1 -1 9900 1;
#N canvas 153 35 319 341 crossfade 0;
#X msg 77 80 1;
#X obj 39 97 -;
#X floatatom 35 51 5 0 0 0 - - -;
#X floatatom 40 130 5 0 0 0 - - -;
#X obj 38 165 * -1;
#X floatatom 41 200 5 0 0 0 - - -;
#X obj 40 241 hsl 128 15 0 1 0 0 empty empty empty -2 -8 0 10 -262144
-1 -1 0 1;
#X obj 26 12 inlet;
#X obj 44 277 outlet;
#X connect 0 0 1 1;
#X connect 1 0 3 0;
#X connect 2 0 1 0;
#X connect 2 0 0 0;
#X connect 3 0 4 0;
#X connect 4 0 5 0;
#X connect 5 0 6 0;
#X connect 6 0 8 0;
#X connect 7 0 2 0;
#X restore 188 95 pd crossfade;
#X obj 199 125 s medVolume;
#X obj 190 152 s fastVolume;
#X msg 128 13 0;
#X obj 76 -13 r stopEverything;
#N canvas 1182 185 450 300 increaseTenTimes 0;
#X obj 79 111 + 0.1;
#X obj 37 112 f;
#X obj 140 109 bng 15 250 50 0 empty empty empty 17 7 0 10 -262144
-1 -1;
#X floatatom 83 146 5 0 0 0 - - -;
#X obj 130 178 bng 15 250 50 0 empty empty empty 17 7 0 10 -262144
-1 -1;
#X msg 197 62 0;
#X obj 158 162 moses 1;
#X obj 56 31 inlet;
#X obj 35 187 outlet;
#X msg 20 64 0;
#X obj 58 79 metro 500;
#X connect 0 0 1 1;
#X connect 1 0 0 0;
#X connect 1 0 3 0;
#X connect 1 0 8 0;
#X connect 3 0 6 0;
#X connect 5 0 10 0;
#X connect 6 0 4 0;
#X connect 6 1 5 0;
#X connect 7 0 9 0;
#X connect 7 0 10 0;
#X connect 9 0 1 0;
#X connect 10 0 1 0;
#X connect 10 0 2 0;
#X restore 166 29 pd increaseTenTimes;
#X obj 197 -13 inlet;
#X connect 1 0 2 0;
#X connect 1 0 0 0;
#X connect 2 0 3 0;
#X connect 2 0 4 0;
#X connect 5 0 7 0;
#X connect 6 0 5 0;
#X connect 7 0 1 0;
#X connect 8 0 7 0;
#X restore -143 -163 pd adjustVolume_slow;
#N canvas 1010 131 450 300 adjustVolume_med 0;
#X obj 117 136 hsl 100 15 0 1 0 0 empty empty empty -2 -8 0 10 -262144
-1 -1 9900 1;
#N canvas 817 166 319 341 crossfade 0;
#X msg 77 80 1;
#X obj 39 97 -;
#X floatatom 35 51 5 0 0 0 - - -;
#X floatatom 40 130 5 0 0 0 - - -;
#X obj 38 165 * -1;
#X floatatom 41 200 5 0 0 0 - - -;
#X obj 40 241 hsl 128 15 0 1 0 0 empty empty empty -2 -8 0 10 -262144
-1 -1 0 1;
#X obj 26 12 inlet;
#X obj 44 277 outlet;
#X connect 0 0 1 1;
#X connect 1 0 3 0;
#X connect 2 0 1 0;
#X connect 2 0 0 0;
#X connect 3 0 4 0;
#X connect 4 0 5 0;
#X connect 5 0 6 0;
#X connect 6 0 8 0;
#X connect 7 0 2 0;
#X restore 136 169 pd crossfade;
#X obj 138 226 s fastVolume;
#X msg 53 69 0;
#X obj 22 41 r stopEverything;
#N canvas 1182 185 450 300 increaseTenTimes 0;
#X obj 79 111 + 0.1;
#X obj 37 112 f;
#X obj 140 109 bng 15 250 50 0 empty empty empty 17 7 0 10 -262144
-1 -1;
#X floatatom 83 146 5 0 0 0 - - -;
#X obj 130 178 bng 15 250 50 0 empty empty empty 17 7 0 10 -262144
-1 -1;
#X msg 197 62 0;
#X obj 158 162 moses 1;
#X obj 56 31 inlet;
#X obj 35 187 outlet;
#X msg 20 64 0;
#X obj 58 79 metro 500;
#X connect 0 0 1 1;
#X connect 1 0 0 0;
#X connect 1 0 3 0;
#X connect 1 0 8 0;
#X connect 3 0 6 0;
#X connect 5 0 10 0;
#X connect 6 0 4 0;
#X connect 6 1 5 0;
#X connect 7 0 9 0;
#X connect 7 0 10 0;
#X connect 9 0 1 0;
#X connect 10 0 1 0;
#X connect 10 0 2 0;
#X restore 114 99 pd increaseTenTimes;
#X obj 46 170 s medVolume;
#X obj 147 199 s slowVolume;
#X obj 142 63 inlet;
#X connect 0 0 1 0;
#X connect 0 0 6 0;
#X connect 1 0 2 0;
#X connect 1 0 7 0;
#X connect 3 0 5 0;
#X connect 4 0 3 0;
#X connect 5 0 0 0;
#X connect 8 0 5 0;
#X restore -16 -163 pd adjustVolume_med;
#N canvas 1162 88 450 300 adjustVolume_fast 0;
#X obj -725 0 hsl 100 15 0 1 0 0 empty empty empty -2 -8 0 10 -262144
-1 -1 9900 1;
#N canvas 817 166 319 341 crossfade 0;
#X msg 77 80 1;
#X obj 39 97 -;
#X floatatom 35 51 5 0 0 0 - - -;
#X floatatom 40 130 5 0 0 0 - - -;
#X obj 38 165 * -1;
#X floatatom 41 200 5 0 0 0 - - -;
#X obj 40 241 hsl 128 15 0 1 0 0 empty empty empty -2 -8 0 10 -262144
-1 -1 0 1;
#X obj 26 12 inlet;
#X obj 44 277 outlet;
#X connect 0 0 1 1;
#X connect 1 0 3 0;
#X connect 2 0 1 0;
#X connect 2 0 0 0;
#X connect 3 0 4 0;
#X connect 4 0 5 0;
#X connect 5 0 6 0;
#X connect 6 0 8 0;
#X connect 7 0 2 0;
#X restore -706 33 pd crossfade;
#X obj -695 63 s medVolume;
#X msg -786 -60 0;
#X obj -784 -86 r stopEverything;
#N canvas 1182 185 450 300 increaseTenTimes 0;
#X obj 79 111 + 0.1;
#X obj 37 112 f;
#X obj 140 109 bng 15 250 50 0 empty empty empty 17 7 0 10 -262144
-1 -1;
#X floatatom 83 146 5 0 0 0 - - -;
#X obj 130 178 bng 15 250 50 0 empty empty empty 17 7 0 10 -262144
-1 -1;
#X msg 197 62 0;
#X obj 158 162 moses 1;
#X obj 56 31 inlet;
#X obj 35 187 outlet;
#X msg 20 64 0;
#X obj 58 79 metro 500;
#X connect 0 0 1 1;
#X connect 1 0 0 0;
#X connect 1 0 3 0;
#X connect 1 0 8 0;
#X connect 3 0 6 0;
#X connect 5 0 10 0;
#X connect 6 0 4 0;
#X connect 6 1 5 0;
#X connect 7 0 9 0;
#X connect 7 0 10 0;
#X connect 9 0 1 0;
#X connect 10 0 1 0;
#X connect 10 0 2 0;
#X restore -728 -33 pd increaseTenTimes;
#X obj -796 34 s fastVolume;
#X obj -704 90 s slowVolume;
#X obj -645 -80 inlet;
#X connect 0 0 1 0;
#X connect 0 0 6 0;
#X connect 1 0 2 0;
#X connect 1 0 7 0;
#X connect 3 0 5 0;
#X connect 4 0 3 0;
#X connect 5 0 0 0;
#X connect 8 0 5 0;
#X restore 105 -163 pd adjustVolume_fast;
#X obj 56 -354 inlet;
#X obj -24 -324 select 1 2 3;
#X obj -24 -354 inlet;
#X obj -16 -249 bng 25 250 50 0 empty empty Med 27 14 0 12 -4034 -1
-1;
#X obj 44 -249 bng 25 250 50 0 empty empty Fast 27 14 0 12 -4034 -1
-1;
#X obj 10 16 readsf~;
#X msg 10 -17 open slow1.wav \, 1;
#X msg -32 -1 0;
#X obj 69 33 bng 15 250 50 0 empty empty empty 17 7 0 10 -262144 -1
-1;
#X obj -31 233 readsf~;
#X obj -32 364 dac~;
#X msg -62 216 0;
#X obj 8 262 bng 15 250 50 0 empty empty empty 17 7 0 10 -262144 -1
-1;
#X msg -31 195 open slow2.wav \, 1;
#X obj 234 16 readsf~;
#X msg 204 -1 0;
#X obj 273 45 bng 15 250 50 0 empty empty empty 17 7 0 10 -262144 -1
-1;
#X msg 234 -28 open med1.wav \, 1;
#X obj 672 -21 readsf~;
#X msg 639 -38 0;
#X obj 731 -4 bng 15 250 50 0 empty empty empty 17 7 0 10 -262144 -1
-1;
#X msg 672 -89 open fast1.wav \, 1;
#X obj 684 192 readsf~;
#X msg 644 175 0;
#X obj 723 224 bng 15 250 50 0 empty empty empty 17 7 0 10 -262144
-1 -1;
#X msg 684 166 open fast2.wav \, 1;
#X obj 684 321 dac~;
#X obj 9 109 dac~;
#X obj 132 297 hsl 128 15 0 1 0 0 empty empty empty -2 -8 0 10 -262144
-1 -1 0 1;
#X obj 234 141 dac~;
#X obj 356 80 hsl 128 15 0 1 0 0 empty empty empty -2 -8 0 10 -262144
-1 -1 0 1;
#X obj 673 91 dac~;
#X obj 876 260 hsl 128 15 0 1 0 0 empty empty empty -2 -8 0 10 -262144
-1 -1 7818 1;
#X obj -32 -71 r stopEverything;
#X obj -62 136 r stopEverything;
#X obj 204 -87 r stopEverything;
#X obj 639 -146 r stopEverything;
#X obj 645 116 r stopEverything;
#X obj 10 -47 r startSlow1;
#X obj 8 284 s startSlow1;
#X obj 69 58 s startSlow2;
#X obj -31 158 r startSlow2;
#X obj -103 -18 r stopSlow;
#X obj 138 -18 r stopMed;
#X obj 564 -55 r stopFast;
#X obj -132 199 r stopSlow;
#X obj 562 158 r stopFast;
#X obj 10 57 *~ 1;
#X obj 235 95 *~ 0.7;
#X obj -31 312 *~ 1;
#X obj 673 40 *~ 0.3;
#X obj 685 275 *~ 0.3;
#X obj 234 -61 r startMed;
#X obj 672 -121 r startFast1;
#X obj 684 140 r startFast2;
#X obj 731 22 s startFast2;
#X obj 723 251 s startFast1;
#X obj 273 69 s startMed;
#X text 127 314 Volume for Slow;
#X text -83 -109 This is the "Slow" Music section;
#X text -188 -38 Plays the 1st slow track;
#X text -164 113 Plays the 2nd slow track;
#X text 351 101 Volume for Med;
#X text 193 -129 This is the "Med" Music section;
#X text 348 -29 Plays the 1st med track;
#X text 872 281 Volume for Fast;
#X text 793 -92 Plays the 1st fast track;
#X text 813 165 Plays the 2nd fast track;
#X text 627 -184 This is the "Fast" Music section;
#X obj 129 183 r slowVolume;
#X obj 129 271 * 1;
#X obj 148 205 r masterVolumeMultiplier;
#X obj 148 235 t b f;
#X text 157 272 Multiplies master volume by normal crossfade;
#X obj 353 -8 r medVolume;
#X obj 353 60 * 1;
#X obj 360 17 r masterVolumeMultiplier;
#X obj 360 37 t b f;
#X text 384 56 Multiplies master volume by normal crossfade;
#X obj 873 188 r fastVolume;
#X obj 873 240 * 1;
#X obj 959 187 r masterVolumeMultiplier;
#X obj 896 213 t b f;
#X text 903 233 Multiplies master volume by normal crossfade;
#X obj 56 -324 s masterVolumeMultiplier;
#X text 20 -245;
#X text -51 -245;
#X connect 0 0 3 0;
#X connect 0 0 6 0;
#X connect 1 0 2 0;
#X connect 9 0 93 0;
#X connect 10 0 0 0;
#X connect 10 1 12 0;
#X connect 10 2 13 0;
#X connect 10 3 1 0;
#X connect 11 0 10 0;
#X connect 12 0 4 0;
#X connect 12 0 7 0;
#X connect 13 0 5 0;
#X connect 13 0 8 0;
#X connect 14 0 56 0;
#X connect 14 1 17 0;
#X connect 15 0 14 0;
#X connect 16 0 14 0;
#X connect 17 0 49 0;
#X connect 18 0 58 0;
#X connect 18 1 21 0;
#X connect 20 0 18 0;
#X connect 21 0 48 0;
#X connect 22 0 18 0;
#X connect 23 0 57 0;
#X connect 23 1 25 0;
#X connect 24 0 23 0;
#X connect 25 0 66 0;
#X connect 26 0 23 0;
#X connect 27 0 59 0;
#X connect 27 1 29 0;
#X connect 28 0 27 0;
#X connect 29 0 64 0;
#X connect 30 0 27 0;
#X connect 31 0 60 0;
#X connect 31 1 33 0;
#X connect 32 0 31 0;
#X connect 33 0 65 0;
#X connect 34 0 31 0;
#X connect 37 0 56 1;
#X connect 37 0 58 1;
#X connect 39 0 57 1;
#X connect 41 0 59 1;
#X connect 41 0 60 1;
#X connect 42 0 16 0;
#X connect 43 0 20 0;
#X connect 44 0 24 0;
#X connect 45 0 28 0;
#X connect 46 0 32 0;
#X connect 47 0 15 0;
#X connect 50 0 22 0;
#X connect 51 0 16 0;
#X connect 52 0 24 0;
#X connect 53 0 28 0;
#X connect 54 0 20 0;
#X connect 55 0 32 0;
#X connect 56 0 36 0;
#X connect 56 0 36 1;
#X connect 57 0 38 0;
#X connect 57 0 38 1;
#X connect 58 0 19 0;
#X connect 58 0 19 1;
#X connect 59 0 40 0;
#X connect 59 0 40 1;
#X connect 60 0 35 0;
#X connect 60 0 35 1;
#X connect 61 0 26 0;
#X connect 62 0 30 0;
#X connect 63 0 34 0;
#X connect 78 0 79 0;
#X connect 79 0 37 0;
#X connect 80 0 81 0;
#X connect 81 0 79 0;
#X connect 81 1 79 1;
#X connect 83 0 84 0;
#X connect 84 0 39 0;
#X connect 85 0 86 0;
#X connect 86 0 84 0;
#X connect 86 1 84 1;
#X connect 88 0 89 0;
#X connect 89 0 41 0;
#X connect 90 0 91 0;
#X connect 91 0 89 0;
#X connect 91 1 89 1;
