#N canvas 771 105 940 888 10;
#X obj 198 36 inlet;
#X obj 198 66 pix_separator;
#X obj 183 136 pix_data;
#X obj 123 119 r m_bang;
#X obj 213 96 r px;
#X obj 228 116 r py;
#X obj 205 196 unpack f f f;
#X obj 205 288 select 1;
#X obj 314 288 select 1;
#X obj 424 288 select 1;
#X floatatom 274 343 5 0 0 0 - - -;
#X floatatom 383 343 5 0 0 0 - - -;
#X floatatom 493 343 5 0 0 0 - - -;
#X floatatom 259 660 5 0 0 0 - - -;
#X floatatom 274 428 5 0 0 0 - - -;
#X floatatom 383 428 5 0 0 0 - - -;
#X floatatom 493 427 5 0 0 0 - - -;
#X obj 274 456 expr if ($f1 > $f2 \, $f1 \, $f2);
#X obj 274 491 expr if ($f1 > $f2 \, $f1 \, $f2);
#X obj 259 550 f;
#X obj 259 689 change;
#X floatatom 274 521 5 0 0 0 - - -;
#X obj 182 456 metro 1000;
#X obj 314 315 DecayCounter;
#X obj 182 428 tgl 15 0 empty empty empty 17 7 0 10 -262144 -1 -1 0
1;
#X obj 259 719 outlet;
#X obj 614 228 counter;
#X msg 633 140 0;
#X msg 643 169 0;
#X obj 614 482 counter;
#X msg 633 394 0;
#X msg 643 423 0;
#X msg 653 198 15;
#X obj 614 359 select 0;
#X msg 653 452 11;
#X obj 793 377 loadbang;
#X obj 790 123 loadbang;
#X floatatom 634 549 5 0 0 0 - - -;
#X obj 634 578 s py;
#X obj 505 127 s m_bang;
#X text 649 81 Sends Coordinates for Calculations;
#X obj 614 82 tgl 15 0 empty empty empty 17 7 0 10 -262144 -1 -1 0
1;
#X obj 182 398 r start;
#X obj 614 52 r start;
#X obj 634 324 s px;
#X floatatom 634 295 5 0 0 0 - - -;
#X obj 634 519 expr $f1 / 6 - 0.915;
#X obj 634 265 expr $f1 / 8 - 0.9375;
#X obj 614 110 metro 1;
#X obj 205 166 ColorBin;
#X obj 274 372 expr if($f1 > \$2 && $f1 > $f3 \, 1 \, 0) \; if($f2
> $f1 && $f2 > $f3 \, 2 \, 0) \; if($f3 > $f1 && $f3 > $f2 \, 3 \,
0);
#X obj 259 630 spigot;
#X obj 259 580 t f f;
#X obj 292 603 > 0;
#X obj 205 315 DecayCounter;
#X obj 424 315 DecayCounter;
#X obj 162 332 + 1;
#X connect 0 0 1 0;
#X connect 1 0 2 1;
#X connect 2 1 49 0;
#X connect 3 0 2 0;
#X connect 4 0 2 2;
#X connect 5 0 2 3;
#X connect 6 0 7 0;
#X connect 6 1 8 0;
#X connect 6 2 9 0;
#X connect 7 0 54 0;
#X connect 8 0 23 0;
#X connect 9 0 55 0;
#X connect 10 0 50 0;
#X connect 11 0 50 1;
#X connect 12 0 50 2;
#X connect 13 0 20 0;
#X connect 14 0 17 0;
#X connect 15 0 17 1;
#X connect 16 0 18 1;
#X connect 17 0 18 0;
#X connect 18 0 21 0;
#X connect 19 0 52 0;
#X connect 20 0 25 0;
#X connect 21 0 19 1;
#X connect 22 0 19 0;
#X connect 23 1 11 0;
#X connect 24 0 22 0;
#X connect 26 0 33 0;
#X connect 26 0 47 0;
#X connect 27 0 26 2;
#X connect 28 0 26 3;
#X connect 29 0 46 0;
#X connect 30 0 29 2;
#X connect 31 0 29 3;
#X connect 32 0 26 4;
#X connect 33 0 29 0;
#X connect 34 0 29 4;
#X connect 35 0 30 0;
#X connect 35 0 31 0;
#X connect 35 0 34 0;
#X connect 36 0 27 0;
#X connect 36 0 28 0;
#X connect 36 0 32 0;
#X connect 37 0 38 0;
#X connect 41 0 48 0;
#X connect 42 0 24 0;
#X connect 43 0 41 0;
#X connect 45 0 44 0;
#X connect 46 0 37 0;
#X connect 47 0 45 0;
#X connect 48 0 26 0;
#X connect 48 0 39 0;
#X connect 49 0 6 0;
#X connect 50 0 14 0;
#X connect 50 1 15 0;
#X connect 50 2 16 0;
#X connect 51 0 13 0;
#X connect 52 0 51 0;
#X connect 52 1 53 0;
#X connect 53 0 51 1;
#X connect 54 1 10 0;
#X connect 55 1 12 0;
