#N canvas 38 25 940 888 10;
#X obj 138 36 inlet;
#X obj 138 66 pix_separator;
#X obj 123 136 pix_data;
#X obj 63 119 r m_bang;
#X obj 153 96 r px;
#X obj 168 116 r py;
#X obj 145 196 unpack f f f;
#X floatatom 145 316 5 0 0 0 - - -;
#X floatatom 290 316 5 0 0 0 - - -;
#X floatatom 436 316 5 0 0 0 - - -;
#X floatatom 130 633 5 0 0 0 - - -;
#X floatatom 145 401 5 0 0 0 - - -;
#X floatatom 290 401 5 0 0 0 - - -;
#X floatatom 436 400 5 0 0 0 - - -;
#X obj 145 429 expr if ($f1 > $f2 \, $f1 \, $f2);
#X obj 145 464 expr if ($f1 > $f2 \, $f1 \, $f2);
#X obj 130 523 f;
#X obj 130 662 change;
#X floatatom 145 494 5 0 0 0 - - -;
#X obj 53 465 tgl 15 0 empty empty empty 17 7 0 10 -262144 -1 -1 0
1;
#X obj 130 692 outlet;
#X obj 614 228 counter;
#X msg 633 140 0;
#X msg 643 169 0;
#X obj 614 482 counter;
#X msg 633 394 0;
#X msg 643 423 0;
#X msg 653 198 15;
#X obj 614 360 select 0;
#X msg 653 452 11;
#X obj 793 377 loadbang;
#X obj 790 123 loadbang;
#X floatatom 634 549 5 0 0 0 - - -;
#X obj 634 578 s py;
#X obj 535 127 s m_bang;
#X text 649 81 Sends Coordinates for Calculations;
#X obj 614 82 tgl 15 0 empty empty empty 17 7 0 10 -262144 -1 -1 0
1;
#X obj 53 435 r start;
#X obj 614 52 r start;
#X obj 634 324 s px;
#X floatatom 634 295 5 0 0 0 - - -;
#X obj 634 519 expr $f1 / 6 - 0.915;
#X obj 634 265 expr $f1 / 8 - 0.9375;
#X obj 145 166 ColorBin;
#X obj 130 603 spigot;
#X obj 130 553 t f f;
#X obj 163 576 > 0;
#X obj 53 553 s \$0-reset;
#X obj 436 165 r \$0-reset;
#X floatatom 436 225 5 0 0 0 - - -;
#X obj 436 195 bng 15 250 50 0 empty empty empty 17 7 0 10 -262144
-1 -1;
#X obj 214 224 +;
#X obj 179 224 +;
#X obj 145 224 +;
#X obj 53 493 metro 1000;
#X obj 614 110 metro 1;
#X msg 534 211 set \$1;
#X floatatom 534 192 5 0 0 0 - - -;
#X msg 534 171 r \$0-reset;
#X msg 534 465 set \$1;
#X floatatom 534 446 5 0 0 0 - - -;
#X msg 534 425 r \$0-reset;
#X obj 145 345 expr if($f1 > 10 && $f1 > \$2 && $f1 > $f3 \, 1 \, 0)
\; if($f2 > 10 && $f2 > $f1 && $f2 > $f3 \, 2 \, 0) \; if($f3 > 10
&& $f3 > $f1 && $f3 > $f2 \, 3 \, 0);
#X connect 0 0 1 0;
#X connect 1 0 2 1;
#X connect 2 1 43 0;
#X connect 3 0 2 0;
#X connect 4 0 2 2;
#X connect 5 0 2 3;
#X connect 6 0 53 0;
#X connect 6 1 52 0;
#X connect 6 2 51 0;
#X connect 7 0 53 1;
#X connect 7 0 62 0;
#X connect 8 0 52 1;
#X connect 8 0 62 1;
#X connect 9 0 51 1;
#X connect 9 0 62 2;
#X connect 10 0 17 0;
#X connect 11 0 14 0;
#X connect 12 0 14 1;
#X connect 13 0 15 1;
#X connect 14 0 15 0;
#X connect 15 0 18 0;
#X connect 16 0 45 0;
#X connect 16 0 47 0;
#X connect 17 0 20 0;
#X connect 18 0 16 1;
#X connect 19 0 54 0;
#X connect 21 0 28 0;
#X connect 21 0 42 0;
#X connect 22 0 21 2;
#X connect 23 0 21 3;
#X connect 24 0 41 0;
#X connect 25 0 24 2;
#X connect 26 0 24 3;
#X connect 27 0 21 4;
#X connect 28 0 24 0;
#X connect 29 0 24 4;
#X connect 30 0 25 0;
#X connect 30 0 26 0;
#X connect 30 0 29 0;
#X connect 31 0 22 0;
#X connect 31 0 23 0;
#X connect 31 0 27 0;
#X connect 32 0 33 0;
#X connect 36 0 55 0;
#X connect 37 0 19 0;
#X connect 38 0 36 0;
#X connect 40 0 39 0;
#X connect 41 0 32 0;
#X connect 42 0 40 0;
#X connect 43 0 6 0;
#X connect 44 0 10 0;
#X connect 45 0 44 0;
#X connect 45 1 46 0;
#X connect 46 0 44 1;
#X connect 48 0 50 0;
#X connect 49 0 7 0;
#X connect 49 0 8 0;
#X connect 49 0 9 0;
#X connect 50 0 49 0;
#X connect 51 0 9 0;
#X connect 52 0 8 0;
#X connect 53 0 7 0;
#X connect 54 0 16 0;
#X connect 55 0 21 0;
#X connect 55 0 34 0;
#X connect 56 0 21 1;
#X connect 57 0 56 0;
#X connect 58 0 57 0;
#X connect 59 0 24 0;
#X connect 60 0 59 0;
#X connect 61 0 60 0;
#X connect 62 0 11 0;
#X connect 62 1 12 0;
#X connect 62 2 13 0;
