#N canvas 22 430 869 620 10;
#X obj 69 107 gemwin;
#X msg 33 59 create;
#X msg 84 59 destroy;
#X obj 264 67 pix_video;
#X obj 175 246 pix_texture;
#X msg 140 61 dimen 800 600;
#X obj 265 98 pix_rgba;
#X obj 8 62 tgl 15 0 empty empty empty 17 7 0 10 -262144 -1 -1 0 1
;
#X obj 302 298 pix_blob;
#X floatatom 281 335 5 0 0 0 - - -;
#X floatatom 318 335 5 0 0 0 - - -;
#X floatatom 355 337 5 0 0 0 - - -;
#X obj 303 241 pix_movement;
#X obj 393 218 hsl 128 15 0 1 0 0 empty empty empty -2 -8 0 10 -262144
-1 -1 1905 1;
#X obj 303 266 alpha;
#X obj 353 273 hradio 15 1 0 5 empty empty empty 0 -8 0 10 -262144
-1 -1 4;
#X obj 264 136 pix_flip;
#X msg 191 98 horizontal;
#X obj 262 29 gemhead 50;
#X obj 261 167 trigger a a;
#X obj 304 205 pix_separator;
#X obj 176 203 pix_separator;
#X obj 6 9 pddp/dsp;
#X obj 171 294 rectangle 5.33 4;
#X obj 410 322 hsl 128 15 0 1 0 0 empty empty empty -2 -8 0 10 -262144
-1 -1 10900 1;
#X obj 394 112 loadbang;
#X msg 394 151 0.15;
#X obj 456 239 loadbang;
#X msg 394 247 5;
#N canvas 555 15 1350 863 playMusic 1;
#X obj 567 45 inlet;
#X obj 617 46 inlet;
#X obj 689 46 inlet;
#X obj 162 368 readsf~;
#X msg 162 336 open slow1.wav \, 1;
#X msg 120 352 0;
#X obj 221 383 bng 15 250 50 0 empty empty empty 17 7 0 10 -262144
-1 -1;
#X obj 121 586 readsf~;
#X obj 120 717 dac~;
#X msg 90 569 0;
#X obj 160 615 bng 15 250 50 0 empty empty empty 17 7 0 10 -262144
-1 -1;
#X msg 121 548 open slow2.wav \, 1;
#X obj 487 400 readsf~;
#X msg 457 383 0;
#X obj 526 429 bng 15 250 50 0 empty empty empty 17 7 0 10 -262144
-1 -1;
#X msg 487 356 open med1.wav \, 1;
#X obj 844 357 readsf~;
#X msg 811 340 0;
#X obj 903 374 bng 15 250 50 0 empty empty empty 17 7 0 10 -262144
-1 -1;
#X msg 844 289 open fast1.wav \, 1;
#X obj 856 570 readsf~;
#X msg 816 553 0;
#X obj 895 602 bng 15 250 50 0 empty empty empty 17 7 0 10 -262144
-1 -1;
#X msg 856 544 open fast2.wav \, 1;
#X obj 856 699 dac~;
#X obj 161 461 dac~;
#X obj 284 690 hsl 128 15 0 1 0 0 empty empty empty -2 -8 0 10 -262144
-1 -1 0 1;
#X obj 487 525 dac~;
#X obj 609 464 hsl 128 15 0 1 0 0 empty empty empty -2 -8 0 10 -262144
-1 -1 10900 1;
#X obj 845 469 dac~;
#X obj 1048 638 hsl 128 15 0 1 0 0 empty empty empty -2 -8 0 10 -262144
-1 -1 10900 1;
#X obj 202 99 bng 25 250 50 0 empty empty empty 17 7 0 20 -4034 -1
-1;
#X obj 330 98 bng 25 250 50 0 empty empty empty 17 7 0 10 -4034 -1
-1;
#X obj 452 95 bng 25 250 50 0 empty empty empty 17 7 0 10 -4034 -1
-1;
#X text 322 78 Medium;
#X obj 66 102 bng 25 250 50 0 empty empty empty 17 7 0 10 -258113 -1
-1;
#X text 34 80 Stop Everything;
#X obj 66 155 s stopEverything;
#X obj 120 282 r stopEverything;
#X obj 90 489 r stopEverything;
#X obj 457 297 r stopEverything;
#X obj 811 232 r stopEverything;
#X obj 817 494 r stopEverything;
#X obj 201 134 s startSlow1;
#X obj 162 306 r startSlow1;
#X obj 160 637 s startSlow1;
#X obj 221 408 s startSlow2;
#X obj 121 511 r startSlow2;
#X obj 49 335 r stopSlow;
#X obj 391 366 r stopMed;
#X obj 736 323 r stopFast;
#X obj 20 551 r stopSlow;
#X obj 734 536 r stopFast;
#X obj 162 409 *~ 1;
#X obj 488 479 *~ 0.7;
#X obj 121 665 *~ 1;
#X obj 845 418 *~ 0.3;
#X obj 857 653 *~ 0.3;
#X obj 487 323 r startMed;
#X obj 844 257 r startFast1;
#X obj 856 518 r startFast2;
#X obj 903 400 s startFast2;
#X obj 895 629 s startFast1;
#X obj 526 453 s startMed;
#X obj 330 133 s startMed;
#X obj 452 131 s startFast1;
#X obj 283 602 r slowVolume;
#X obj 606 373 r medVolume;
#X obj 1045 560 r fastVolume;
#X text 199 79 Slow;
#X text 451 76 Fast;
#N canvas 290 364 450 300 adjustVolume_slow 0;
#X obj 98 96 s slowVolume;
#X obj 169 62 hsl 100 15 0 1 0 0 empty empty empty -2 -8 0 10 -262144
-1 -1 0 1;
#N canvas 674 446 319 341 crossfade 0;
#X msg 77 80 1;
#X obj 39 97 -;
#X floatatom 35 51 5 0 0 0 - - -;
#X floatatom 40 130 5 0 0 0 - - -;
#X obj 38 165 * -1;
#X floatatom 41 200 5 0 0 0 - - -;
#X obj 40 241 hsl 128 15 0 1 0 0 empty empty empty -2 -8 0 10 -262144
-1 -1 12700 1;
#X obj 26 12 inlet;
#X obj 44 277 outlet;
#X connect 0 0 1 1;
#X connect 1 0 3 0;
#X connect 2 0 1 0;
#X connect 2 0 0 0;
#X connect 3 0 4 0;
#X connect 4 0 5 0;
#X connect 5 0 6 0;
#X connect 6 0 8 0;
#X connect 7 0 2 0;
#X restore 188 95 pd crossfade;
#X obj 199 125 s medVolume;
#X obj 190 152 s fastVolume;
#X msg 128 13 0;
#X obj 76 -13 r stopEverything;
#N canvas 905 167 450 300 increaseTenTimes 0;
#X obj 79 111 + 0.1;
#X obj 37 112 f;
#X obj 140 109 bng 15 250 50 0 empty empty empty 17 7 0 10 -262144
-1 -1;
#X floatatom 83 146 5 0 0 0 - - -;
#X obj 130 178 bng 15 250 50 0 empty empty empty 17 7 0 10 -262144
-1 -1;
#X msg 197 62 0;
#X obj 158 162 moses 1;
#X obj 56 31 inlet;
#X obj 35 187 outlet;
#X msg 20 64 0;
#X obj 58 79 metro 500;
#X connect 0 0 1 1;
#X connect 1 0 0 0;
#X connect 1 0 3 0;
#X connect 1 0 8 0;
#X connect 3 0 6 0;
#X connect 5 0 10 0;
#X connect 6 0 4 0;
#X connect 6 1 5 0;
#X connect 7 0 9 0;
#X connect 7 0 10 0;
#X connect 9 0 1 0;
#X connect 10 0 1 0;
#X connect 10 0 2 0;
#X restore 166 29 pd increaseTenTimes;
#X obj 197 -13 inlet;
#X connect 1 0 2 0;
#X connect 1 0 0 0;
#X connect 2 0 3 0;
#X connect 2 0 4 0;
#X connect 5 0 7 0;
#X connect 6 0 5 0;
#X connect 7 0 1 0;
#X connect 8 0 7 0;
#X restore 180 154 pd adjustVolume_slow;
#N canvas 1010 131 450 300 adjustVolume_med 0;
#X obj 117 136 hsl 100 15 0 1 0 0 empty empty empty -2 -8 0 10 -262144
-1 -1 0 1;
#N canvas 817 166 319 341 crossfade 0;
#X msg 77 80 1;
#X obj 39 97 -;
#X floatatom 35 51 5 0 0 0 - - -;
#X floatatom 40 130 5 0 0 0 - - -;
#X obj 38 165 * -1;
#X floatatom 41 200 5 0 0 0 - - -;
#X obj 40 241 hsl 128 15 0 1 0 0 empty empty empty -2 -8 0 10 -262144
-1 -1 12700 1;
#X obj 26 12 inlet;
#X obj 44 277 outlet;
#X connect 0 0 1 1;
#X connect 1 0 3 0;
#X connect 2 0 1 0;
#X connect 2 0 0 0;
#X connect 3 0 4 0;
#X connect 4 0 5 0;
#X connect 5 0 6 0;
#X connect 6 0 8 0;
#X connect 7 0 2 0;
#X restore 136 169 pd crossfade;
#X obj 138 226 s fastVolume;
#X msg 53 69 0;
#X obj 22 41 r stopEverything;
#N canvas 1182 185 450 300 increaseTenTimes 0;
#X obj 79 111 + 0.1;
#X obj 37 112 f;
#X obj 140 109 bng 15 250 50 0 empty empty empty 17 7 0 10 -262144
-1 -1;
#X floatatom 83 146 5 0 0 0 - - -;
#X obj 130 178 bng 15 250 50 0 empty empty empty 17 7 0 10 -262144
-1 -1;
#X msg 197 62 0;
#X obj 158 162 moses 1;
#X obj 56 31 inlet;
#X obj 35 187 outlet;
#X msg 20 64 0;
#X obj 58 79 metro 500;
#X connect 0 0 1 1;
#X connect 1 0 0 0;
#X connect 1 0 3 0;
#X connect 1 0 8 0;
#X connect 3 0 6 0;
#X connect 5 0 10 0;
#X connect 6 0 4 0;
#X connect 6 1 5 0;
#X connect 7 0 9 0;
#X connect 7 0 10 0;
#X connect 9 0 1 0;
#X connect 10 0 1 0;
#X connect 10 0 2 0;
#X restore 114 99 pd increaseTenTimes;
#X obj 46 170 s medVolume;
#X obj 147 199 s slowVolume;
#X obj 142 63 inlet;
#X connect 0 0 1 0;
#X connect 0 0 6 0;
#X connect 1 0 2 0;
#X connect 1 0 7 0;
#X connect 3 0 5 0;
#X connect 4 0 3 0;
#X connect 5 0 0 0;
#X connect 8 0 5 0;
#X restore 313 154 pd adjustVolume_med;
#N canvas 1162 88 450 300 adjustVolume_fast 0;
#X obj -725 0 hsl 100 15 0 1 0 0 empty empty empty -2 -8 0 10 -262144
-1 -1 0 1;
#N canvas 817 166 319 341 crossfade 0;
#X msg 77 80 1;
#X obj 39 97 -;
#X floatatom 35 51 5 0 0 0 - - -;
#X floatatom 40 130 5 0 0 0 - - -;
#X obj 38 165 * -1;
#X floatatom 41 200 5 0 0 0 - - -;
#X obj 40 241 hsl 128 15 0 1 0 0 empty empty empty -2 -8 0 10 -262144
-1 -1 12700 1;
#X obj 26 12 inlet;
#X obj 44 277 outlet;
#X connect 0 0 1 1;
#X connect 1 0 3 0;
#X connect 2 0 1 0;
#X connect 2 0 0 0;
#X connect 3 0 4 0;
#X connect 4 0 5 0;
#X connect 5 0 6 0;
#X connect 6 0 8 0;
#X connect 7 0 2 0;
#X restore -706 33 pd crossfade;
#X obj -695 63 s medVolume;
#X msg -786 -60 0;
#X obj -784 -86 r stopEverything;
#N canvas 1182 185 450 300 increaseTenTimes 0;
#X obj 79 111 + 0.1;
#X obj 37 112 f;
#X obj 140 109 bng 15 250 50 0 empty empty empty 17 7 0 10 -262144
-1 -1;
#X floatatom 83 146 5 0 0 0 - - -;
#X obj 130 178 bng 15 250 50 0 empty empty empty 17 7 0 10 -262144
-1 -1;
#X msg 197 62 0;
#X obj 158 162 moses 1;
#X obj 56 31 inlet;
#X obj 35 187 outlet;
#X msg 20 64 0;
#X obj 58 79 metro 500;
#X connect 0 0 1 1;
#X connect 1 0 0 0;
#X connect 1 0 3 0;
#X connect 1 0 8 0;
#X connect 3 0 6 0;
#X connect 5 0 10 0;
#X connect 6 0 4 0;
#X connect 6 1 5 0;
#X connect 7 0 9 0;
#X connect 7 0 10 0;
#X connect 9 0 1 0;
#X connect 10 0 1 0;
#X connect 10 0 2 0;
#X restore -728 -33 pd increaseTenTimes;
#X obj -796 34 s fastVolume;
#X obj -704 90 s slowVolume;
#X obj -645 -80 inlet;
#X connect 0 0 1 0;
#X connect 0 0 6 0;
#X connect 1 0 2 0;
#X connect 1 0 7 0;
#X connect 3 0 5 0;
#X connect 4 0 3 0;
#X connect 5 0 0 0;
#X connect 8 0 5 0;
#X restore 439 153 pd adjustVolume_fast;
#X text 279 707 Volume for Slow;
#X text 69 244 This is the "Slow" Music section;
#X text 277 335 Plays the 1st slow track;
#X text 249 547 Plays the 2nd slow track;
#X text 604 485 Volume for Med;
#X text 446 255 This is the "Med" Music section;
#X text 601 355 Plays the 1st med track;
#X text 1044 659 Volume for Fast;
#X text 965 286 Plays the 1st fast track;
#X text 985 543 Plays the 2nd fast track;
#X text 799 194 This is the "Fast" Music section;
#X obj 610 128 s masterVolumeMultiplier;
#X obj 281 662 * 1;
#X obj 342 618 r masterVolumeMultiplier;
#X obj 606 441 * 1;
#X obj 616 394 r masterVolumeMultiplier;
#X obj 1045 612 * 1;
#X obj 1131 559 r masterVolumeMultiplier;
#X text 726 87 Number between 0 and 1 Comes from VolumeControl.pd;
#X floatatom 567 89 5 0 0 0 - - -;
#X floatatom 621 87 5 0 0 0 - - -;
#X floatatom 679 88 5 0 0 0 - - -;
#X obj 300 635 t b f;
#X obj 613 418 t b f;
#X obj 1068 585 t b f;
#X text 637 437 Multiplies master volume by normal crossfade;
#X text 309 663 Multiplies master volume by normal crossfade;
#X text 1075 605 Multiplies master volume by normal crossfade;
#X connect 0 0 93 0;
#X connect 1 0 94 0;
#X connect 2 0 95 0;
#X connect 3 0 53 0;
#X connect 3 1 6 0;
#X connect 4 0 3 0;
#X connect 5 0 3 0;
#X connect 6 0 46 0;
#X connect 7 0 55 0;
#X connect 7 1 10 0;
#X connect 9 0 7 0;
#X connect 10 0 45 0;
#X connect 11 0 7 0;
#X connect 12 0 54 0;
#X connect 12 1 14 0;
#X connect 13 0 12 0;
#X connect 14 0 63 0;
#X connect 15 0 12 0;
#X connect 16 0 56 0;
#X connect 16 1 18 0;
#X connect 17 0 16 0;
#X connect 18 0 61 0;
#X connect 19 0 16 0;
#X connect 20 0 57 0;
#X connect 20 1 22 0;
#X connect 21 0 20 0;
#X connect 22 0 62 0;
#X connect 23 0 20 0;
#X connect 26 0 53 1;
#X connect 26 0 55 1;
#X connect 28 0 54 1;
#X connect 30 0 56 1;
#X connect 30 0 57 1;
#X connect 31 0 43 0;
#X connect 31 0 71 0;
#X connect 32 0 64 0;
#X connect 32 0 72 0;
#X connect 33 0 65 0;
#X connect 33 0 73 0;
#X connect 35 0 37 0;
#X connect 38 0 5 0;
#X connect 39 0 9 0;
#X connect 40 0 13 0;
#X connect 41 0 17 0;
#X connect 42 0 21 0;
#X connect 44 0 4 0;
#X connect 47 0 11 0;
#X connect 48 0 5 0;
#X connect 49 0 13 0;
#X connect 50 0 17 0;
#X connect 51 0 9 0;
#X connect 52 0 21 0;
#X connect 53 0 25 0;
#X connect 53 0 25 1;
#X connect 54 0 27 0;
#X connect 54 0 27 1;
#X connect 55 0 8 0;
#X connect 55 0 8 1;
#X connect 56 0 29 0;
#X connect 56 0 29 1;
#X connect 57 0 24 0;
#X connect 57 0 24 1;
#X connect 58 0 15 0;
#X connect 59 0 19 0;
#X connect 60 0 23 0;
#X connect 66 0 86 0;
#X connect 67 0 88 0;
#X connect 68 0 90 0;
#X connect 86 0 26 0;
#X connect 87 0 96 0;
#X connect 88 0 28 0;
#X connect 89 0 97 0;
#X connect 90 0 30 0;
#X connect 91 0 98 0;
#X connect 93 0 85 0;
#X connect 94 0 85 0;
#X connect 95 0 85 0;
#X connect 96 0 86 0;
#X connect 96 1 86 1;
#X connect 97 0 88 0;
#X connect 97 1 88 1;
#X connect 98 0 90 0;
#X connect 98 1 90 1;
#X restore 329 466 pd playMusic;
#X obj 330 377 moses 0.3;
#X obj 361 416 moses 0.7;
#X connect 2 0 0 0;
#X connect 3 0 6 0;
#X connect 4 0 23 0;
#X connect 5 0 0 0;
#X connect 6 0 16 0;
#X connect 8 1 9 0;
#X connect 8 2 10 0;
#X connect 11 0 30 0;
#X connect 12 0 14 0;
#X connect 13 0 12 1;
#X connect 14 0 8 0;
#X connect 15 0 8 1;
#X connect 16 0 19 0;
#X connect 17 0 16 0;
#X connect 18 0 3 0;
#X connect 19 0 21 0;
#X connect 19 1 20 0;
#X connect 20 0 12 0;
#X connect 21 0 4 0;
#X connect 24 0 11 0;
#X connect 25 0 26 0;
#X connect 26 0 13 0;
#X connect 27 0 28 0;
#X connect 28 0 15 0;
#X connect 30 0 29 0;
#X connect 30 1 31 0;
#X connect 31 0 29 1;
#X connect 31 1 29 2;
