#N canvas 548 13 1344 994 10;
#X obj 220 386 readsf~;
#X msg 219 348 open slow1.wav \, 1;
#X msg 178 370 0;
#X obj 295 381 bng 15 250 50 0 empty empty empty 17 7 0 10 -262144
-1 -1;
#X obj 218 563 readsf~;
#X obj 217 661 dac~;
#X msg 176 547 0;
#X obj 293 558 bng 15 250 50 0 empty empty empty 17 7 0 10 -262144
-1 -1;
#X msg 217 525 open slow2.wav \, 1;
#X obj 516 471 readsf~;
#X msg 474 455 0;
#X obj 591 466 bng 15 250 50 0 empty empty empty 17 7 0 10 -262144
-1 -1;
#X msg 515 433 open med1.wav \, 1;
#X obj 824 390 readsf~;
#X msg 782 374 0;
#X obj 899 385 bng 15 250 50 0 empty empty empty 17 7 0 10 -262144
-1 -1;
#X msg 823 352 open fast1.wav \, 1;
#X obj 825 571 readsf~;
#X msg 783 555 0;
#X obj 900 566 bng 15 250 50 0 empty empty empty 17 7 0 10 -262144
-1 -1;
#X msg 824 533 open fast2.wav \, 1;
#X obj 218 609 *~ 0.5;
#X obj 825 662 dac~;
#X obj 826 610 *~ 0.5;
#X obj 219 479 dac~;
#X obj 320 714 hsl 128 15 0 1 0 0 empty empty empty -2 -8 0 10 -262144
-1 -1 12700 1;
#X obj 220 427 *~ 0.5;
#X text 336 731 Volume control;
#X obj 513 565 dac~;
#X obj 560 713 hsl 128 15 0 1 0 0 empty empty empty -2 -8 0 10 -262144
-1 -1 12700 1;
#X obj 514 513 *~ 0.5;
#X text 577 734 Volume control;
#X obj 823 482 dac~;
#X obj 897 707 hsl 128 15 0 1 0 0 empty empty empty -2 -8 0 10 -262144
-1 -1 12700 1;
#X obj 824 430 *~ 0.5;
#X text 916 724 Volume control;
#X msg 484 205 0;
#X msg 440 206 1;
#X obj 440 161 bng 25 250 50 0 empty empty empty 17 7 0 20 -4034 -1
-1;
#X obj 526 161 bng 25 250 50 0 empty empty empty 17 7 0 10 -4034 -1
-1;
#X obj 612 159 bng 25 250 50 0 empty empty empty 17 7 0 10 -4034 -1
-1;
#X msg 538 203 1;
#X msg 574 204 0;
#X msg 629 204 1;
#X msg 664 203 0;
#X text 419 138 Soft & Slow;
#X text 519 138 Medium;
#X text 591 136 Loud & Fast;
#X text 318 373;
#X text 316 550;
#X text 614 458;
#X text 922 377;
#X text 923 558;
#X text 725 436;
#X text 730 536;
#X text 425 355;
#X text 125 351;
#X text 123 528;
#X text 347 747 Soft & Slow;
#X text 603 749 Medium;
#X text 929 740 Loud & Fast;
#X connect 0 0 26 0;
#X connect 0 1 3 0;
#X connect 1 0 0 0;
#X connect 2 0 0 0;
#X connect 3 0 8 0;
#X connect 4 0 21 0;
#X connect 4 1 7 0;
#X connect 6 0 4 0;
#X connect 7 0 1 0;
#X connect 8 0 4 0;
#X connect 9 0 30 0;
#X connect 9 1 11 0;
#X connect 10 0 9 0;
#X connect 11 0 12 0;
#X connect 12 0 9 0;
#X connect 13 0 34 0;
#X connect 13 1 15 0;
#X connect 14 0 13 0;
#X connect 15 0 20 0;
#X connect 16 0 13 0;
#X connect 17 0 23 0;
#X connect 17 1 19 0;
#X connect 18 0 17 0;
#X connect 19 0 16 0;
#X connect 20 0 17 0;
#X connect 21 0 5 0;
#X connect 21 0 5 1;
#X connect 23 0 22 0;
#X connect 23 0 22 1;
#X connect 25 0 26 1;
#X connect 25 0 21 1;
#X connect 26 0 24 0;
#X connect 26 0 24 1;
#X connect 29 0 30 1;
#X connect 30 0 28 0;
#X connect 30 0 28 1;
#X connect 33 0 34 1;
#X connect 33 0 23 1;
#X connect 34 0 32 0;
#X connect 34 0 32 1;
#X connect 36 0 34 1;
#X connect 36 0 23 1;
#X connect 36 0 30 1;
#X connect 37 0 26 1;
#X connect 37 0 21 1;
#X connect 38 0 1 0;
#X connect 38 0 37 0;
#X connect 38 0 36 0;
#X connect 38 0 10 0;
#X connect 38 0 14 0;
#X connect 39 0 12 0;
#X connect 39 0 41 0;
#X connect 39 0 42 0;
#X connect 39 0 2 0;
#X connect 39 0 6 0;
#X connect 39 0 14 0;
#X connect 39 0 18 0;
#X connect 40 0 43 0;
#X connect 40 0 44 0;
#X connect 40 0 16 0;
#X connect 40 0 10 0;
#X connect 40 0 2 0;
#X connect 40 0 6 0;
#X connect 41 0 30 1;
#X connect 42 0 26 1;
#X connect 42 0 21 1;
#X connect 42 0 34 1;
#X connect 42 0 23 1;
#X connect 43 0 34 1;
#X connect 43 0 23 1;
#X connect 44 0 30 1;
#X connect 44 0 26 1;
#X connect 44 0 21 1;
