#N canvas 548 13 1344 994 10;
#X obj 220 386 readsf~;
#X msg 219 348 open slow1.wav \, 1;
#X msg 178 370 0;
#X obj 282 401 bng 15 250 50 0 empty empty empty 17 7 0 10 -262144
-1 -1;
#X obj 172 607 readsf~;
#X obj 170 738 dac~;
#X msg 130 591 0;
#X obj 232 624 bng 15 250 50 0 empty empty empty 17 7 0 10 -262144
-1 -1;
#X msg 171 569 open slow2.wav \, 1;
#X obj 574 486 readsf~;
#X msg 532 470 0;
#X obj 646 502 bng 15 250 50 0 empty empty empty 17 7 0 10 -262144
-1 -1;
#X msg 573 448 open med1.wav \, 1;
#X obj 913 391 readsf~;
#X msg 871 375 0;
#X obj 980 398 bng 15 250 50 0 empty empty empty 17 7 0 10 -262144
-1 -1;
#X msg 912 353 open fast1.wav \, 1;
#X obj 931 628 readsf~;
#X msg 889 612 0;
#X obj 990 637 bng 15 250 50 0 empty empty empty 17 7 0 10 -262144
-1 -1;
#X msg 930 590 open fast2.wav \, 1;
#X obj 932 743 dac~;
#X obj 219 479 dac~;
#X obj 413 671 hsl 128 15 0 1 0 0 empty empty empty -2 -8 0 10 -262144
-1 -1 12700 1;
#X text 428 696 Volume control;
#X obj 573 576 dac~;
#X obj 658 692 hsl 128 15 0 1 0 0 empty empty empty -2 -8 0 10 -262144
-1 -1 8890 1;
#X text 673 711 Volume control;
#X obj 912 483 dac~;
#X obj 1188 676 hsl 128 15 0 1 0 0 empty empty empty -2 -8 0 10 -262144
-1 -1 0 1;
#X text 1207 693 Volume control;
#X obj 392 110 bng 25 250 50 0 empty empty empty 17 7 0 20 -4034 -1
-1;
#X obj 502 110 bng 25 250 50 0 empty empty empty 17 7 0 10 -4034 -1
-1;
#X obj 622 108 bng 25 250 50 0 empty empty empty 17 7 0 10 -4034 -1
-1;
#X text 371 87 Soft & Slow;
#X text 495 87 Medium;
#X text 601 85 Loud & Fast;
#X text 439 712 Soft & Slow;
#X text 699 726 Medium;
#X text 1220 709 Loud & Fast;
#X obj 98 123 bng 25 250 50 0 empty empty empty 17 7 0 10 -258113 -1
-1;
#X text 66 101 Stop Everything;
#X obj 98 166 s stopEverything;
#X obj 136 286 r stopEverything;
#X obj 78 511 r stopEverything;
#X obj 488 405 r stopEverything;
#X obj 794 289 r stopEverything;
#X obj 793 540 r stopEverything;
#X obj 392 154 s startSlow1;
#X obj 219 310 r startSlow1;
#X obj 232 646 s startSlow1;
#X obj 282 429 s startSlow2;
#X obj 171 532 r startSlow2;
#X obj 370 199 s stopMed;
#X obj 383 177 s stopFast;
#X obj 80 318 r stopSlow;
#X obj 449 443 r stopMed;
#X obj 757 334 r stopFast;
#X obj 26 546 r stopSlow;
#X obj 768 578 r stopFast;
#X obj 220 427 *~ 1;
#X obj 574 524 *~ 0.7;
#X obj 171 686 *~ 1;
#X obj 913 431 *~ 0.3;
#X obj 933 691 *~ 0.3;
#X obj 603 404 r startMed;
#X obj 911 310 r startFast1;
#X obj 930 548 r startFast2;
#X obj 980 430 s startFast2;
#X obj 986 659 s startFast1;
#X obj 647 532 s startMed;
#X obj 502 152 s startMed;
#X obj 481 196 s stopFast;
#X obj 492 174 s stopSlow;
#X obj 622 148 s startFast1;
#X obj 613 170 s stopMed;
#X obj 601 192 s stopSlow;
#X obj 355 258 s slowVolume;
#X obj 410 630 r slowVolume;
#X msg 355 220 1;
#X obj 466 257 s medVolume;
#X obj 655 648 r medVolume;
#X obj 585 256 s fastVolume;
#X obj 1185 635 r fastVolume;
#X msg 468 219 0.7;
#X msg 586 218 0.3;
#X connect 0 0 60 0;
#X connect 0 1 3 0;
#X connect 1 0 0 0;
#X connect 2 0 0 0;
#X connect 3 0 51 0;
#X connect 4 0 62 0;
#X connect 4 1 7 0;
#X connect 6 0 4 0;
#X connect 7 0 50 0;
#X connect 8 0 4 0;
#X connect 9 0 61 0;
#X connect 9 1 11 0;
#X connect 10 0 9 0;
#X connect 11 0 70 0;
#X connect 12 0 9 0;
#X connect 13 0 63 0;
#X connect 13 1 15 0;
#X connect 14 0 13 0;
#X connect 15 0 68 0;
#X connect 16 0 13 0;
#X connect 17 0 64 0;
#X connect 17 1 19 0;
#X connect 18 0 17 0;
#X connect 19 0 69 0;
#X connect 20 0 17 0;
#X connect 23 0 60 1;
#X connect 23 0 62 1;
#X connect 26 0 61 1;
#X connect 29 0 63 1;
#X connect 29 0 64 1;
#X connect 31 0 79 0;
#X connect 31 0 48 0;
#X connect 31 0 53 0;
#X connect 31 0 54 0;
#X connect 32 0 84 0;
#X connect 32 0 71 0;
#X connect 32 0 73 0;
#X connect 32 0 72 0;
#X connect 33 0 85 0;
#X connect 33 0 74 0;
#X connect 33 0 75 0;
#X connect 33 0 76 0;
#X connect 40 0 42 0;
#X connect 43 0 2 0;
#X connect 44 0 6 0;
#X connect 45 0 10 0;
#X connect 46 0 14 0;
#X connect 47 0 18 0;
#X connect 49 0 1 0;
#X connect 52 0 8 0;
#X connect 55 0 2 0;
#X connect 56 0 10 0;
#X connect 57 0 14 0;
#X connect 58 0 6 0;
#X connect 59 0 18 0;
#X connect 60 0 22 0;
#X connect 60 0 22 1;
#X connect 61 0 25 0;
#X connect 61 0 25 1;
#X connect 62 0 5 0;
#X connect 62 0 5 1;
#X connect 63 0 28 0;
#X connect 63 0 28 1;
#X connect 64 0 21 0;
#X connect 64 0 21 1;
#X connect 65 0 12 0;
#X connect 66 0 16 0;
#X connect 67 0 20 0;
#X connect 78 0 23 0;
#X connect 79 0 77 0;
#X connect 81 0 26 0;
#X connect 83 0 29 0;
#X connect 84 0 80 0;
#X connect 85 0 82 0;
